<?xml version="1.0" standalone="no"?>
<!DOCTYPE svg PUBLIC "-//W3C//DTD SVG 20010904//EN"
 "http://www.w3.org/TR/2001/REC-SVG-20010904/DTD/svg10.dtd">
<svg version="1.0" xmlns="http://www.w3.org/2000/svg"
 width="139.000000pt" height="51.000000pt" viewBox="0 0 139.000000 51.000000"
 preserveAspectRatio="xMidYMid meet">
<metadata>
Created by potrace 1.16, written by Peter Selinger 2001-2019
</metadata>
<g transform="translate(0.000000,51.000000) scale(0.018338,-0.013247)"
fill="#000000" stroke="none">
<path d="M6601 3448 c-27 -61 -59 -175 -65 -229 -2 -26 -18 -80 -35 -120 -17
-41 -31 -84 -31 -96 0 -13 -4 -23 -9 -23 -5 0 -17 -24 -26 -52 -10 -29 -24
-63 -32 -76 -8 -13 -12 -29 -10 -35 2 -7 17 16 32 51 16 34 32 62 37 62 4 0 8
11 8 25 0 14 4 25 9 25 5 0 15 16 21 35 21 64 32 40 25 -57 -3 -51 -10 -162
-15 -246 -6 -85 -10 -232 -10 -327 0 -162 -1 -175 -19 -185 -11 -5 -28 -10
-39 -10 -29 0 -162 -69 -162 -85 0 -11 -51 -42 -147 -89 -13 -6 -23 -14 -23
-18 0 -14 -54 -70 -76 -78 -12 -5 -37 -31 -55 -59 -18 -27 -43 -55 -56 -62
-12 -7 -44 -43 -69 -80 -25 -37 -52 -73 -60 -80 -8 -6 -14 -20 -14 -30 0 -11
-3 -19 -8 -19 -4 0 -16 -15 -26 -34 -10 -19 -24 -37 -31 -40 -7 -2 -28 -31
-46 -63 -18 -32 -38 -63 -44 -70 -27 -32 -32 -41 -38 -65 -4 -15 -18 -40 -32
-56 -14 -17 -25 -37 -25 -45 0 -9 -5 -19 -10 -22 -9 -6 -42 -51 -75 -104 -5
-9 -13 -18 -16 -21 -13 -10 -65 -98 -96 -160 -31 -63 -40 -100 -27 -113 9 -8
68 17 92 40 11 10 47 33 80 52 33 18 77 49 96 67 20 19 41 34 47 34 14 0 129
80 129 90 0 4 28 25 63 48 34 22 75 52 90 66 15 14 30 26 32 26 10 0 132 95
162 126 18 18 46 40 62 49 17 8 31 20 31 26 0 6 -12 1 -26 -10 -15 -12 -31
-21 -37 -21 -5 0 -22 -12 -36 -27 -45 -46 -123 -103 -142 -103 -10 0 -38 -19
-62 -42 -66 -64 -108 -98 -121 -98 -6 0 -26 -14 -45 -30 -18 -17 -39 -30 -46
-30 -7 0 -30 -14 -51 -31 -22 -17 -56 -38 -77 -46 -21 -9 -42 -23 -47 -32 -5
-9 -32 -30 -61 -46 l-52 -28 6 46 c6 41 22 83 38 97 3 3 16 23 29 45 13 22 33
51 45 65 13 14 35 48 50 75 15 28 35 58 45 67 10 9 28 40 41 67 12 28 26 51
30 51 4 0 19 24 33 54 14 30 36 63 48 73 13 10 32 36 43 58 11 21 44 64 72 95
29 30 53 59 53 63 0 8 118 125 242 241 26 24 86 63 133 87 47 24 85 47 85 51
0 14 82 49 108 46 26 -3 27 -6 28 -63 1 -33 5 -87 8 -121 8 -74 -7 -156 -34
-194 -11 -15 -20 -38 -20 -49 0 -12 -4 -21 -10 -21 -12 0 -45 -49 -37 -56 9
-10 47 7 47 20 0 8 7 19 15 26 46 39 80 182 70 295 -4 44 -9 101 -11 127 -4
39 -1 49 15 57 11 6 22 11 25 11 3 0 6 -31 6 -70 l0 -70 41 0 c66 0 116 43
143 123 3 9 12 17 21 17 8 0 15 4 15 10 0 19 55 99 76 111 12 6 28 23 35 38
23 44 53 83 87 114 17 16 32 33 32 38 0 11 35 61 68 97 12 14 25 36 28 49 4
13 10 23 15 23 5 0 9 6 9 13 0 20 47 61 55 48 17 -28 109 5 119 43 7 28 1 31
-34 16 -35 -14 -41 -11 -56 33 -16 48 -31 43 -61 -20 -16 -32 -35 -66 -44 -76
-9 -10 -28 -42 -43 -71 -15 -30 -43 -71 -62 -92 -19 -22 -37 -47 -40 -56 -3
-10 -10 -18 -15 -18 -5 0 -9 -7 -9 -15 0 -9 -7 -18 -15 -21 -8 -3 -29 -29 -47
-57 -30 -49 -71 -99 -110 -135 -10 -9 -18 -21 -18 -27 0 -11 -115 -135 -125
-135 -3 0 -5 20 -5 43 0 58 -25 87 -74 87 l-36 0 0 208 c0 114 5 261 10 327 5
66 14 194 20 285 7 102 17 176 26 194 8 16 14 37 14 47 0 10 6 24 13 31 16 16
42 142 32 157 -13 23 -36 9 -54 -31z"/>
<path d="M1480 3111 c-47 -19 -58 -33 -134 -188 -15 -32 -32 -66 -37 -75 -5
-10 -9 -26 -9 -37 0 -11 -5 -21 -11 -23 -6 -2 -13 -15 -14 -29 -4 -33 -32 -89
-45 -89 -6 0 -15 11 -22 24 -6 14 -24 30 -39 37 -16 6 -29 18 -29 25 0 21 -47
17 -71 -5 -12 -11 -44 -30 -73 -42 -35 -16 -64 -40 -94 -76 -24 -29 -49 -53
-56 -53 -14 0 -76 -64 -76 -78 0 -5 -17 -24 -37 -43 -21 -19 -59 -57 -84 -85
-25 -27 -54 -54 -64 -60 -11 -6 -34 -33 -52 -60 -19 -27 -43 -60 -56 -75 -12
-14 -33 -41 -47 -60 -14 -18 -44 -52 -66 -74 -23 -22 -52 -62 -65 -89 -13 -27
-29 -51 -36 -53 -7 -3 -13 -18 -13 -34 0 -22 5 -29 19 -29 26 0 119 98 127
133 3 15 14 33 25 40 10 6 19 15 19 20 0 4 12 20 26 35 14 15 31 38 39 52 7
14 34 44 59 67 25 23 46 45 46 50 0 8 141 162 176 193 9 8 38 37 63 64 25 27
57 58 70 70 12 12 52 49 88 84 70 66 103 79 103 38 0 -13 6 -26 14 -29 22 -9
30 -87 15 -151 -7 -31 -16 -56 -21 -56 -4 0 -8 -13 -8 -28 0 -71 -122 -376
-155 -388 -8 -3 -17 -18 -20 -34 -3 -15 -26 -51 -51 -80 -24 -28 -44 -58 -44
-65 0 -8 -16 -30 -35 -51 -19 -20 -35 -42 -35 -48 0 -17 -58 -106 -68 -106 -5
0 -23 -29 -41 -65 -36 -71 -54 -82 -105 -64 -56 20 -69 8 -64 -58 3 -34 11
-60 20 -67 8 -6 18 -33 22 -60 4 -28 16 -72 27 -98 10 -27 19 -57 19 -68 0
-10 7 -25 15 -34 8 -8 15 -18 15 -21 0 -4 9 -20 20 -35 29 -40 115 -87 177
-95 61 -8 152 9 185 34 13 9 43 23 67 31 24 8 45 20 48 27 3 7 11 13 18 13 7
0 18 7 25 15 7 8 20 15 30 15 10 0 37 16 60 35 23 19 46 35 51 35 5 0 9 7 9
15 0 8 16 27 36 42 39 31 64 71 64 103 0 27 -18 26 -29 -2 -10 -25 -74 -88
-90 -88 -6 0 -25 -18 -42 -40 -22 -27 -58 -53 -107 -77 -41 -20 -88 -49 -105
-65 -37 -33 -83 -48 -148 -48 -72 0 -128 25 -181 80 -44 47 -88 136 -88 180 0
10 -4 20 -8 22 -5 2 -12 24 -15 49 -5 40 -3 51 18 75 14 16 25 32 25 36 0 5
18 27 40 49 22 23 40 47 40 54 0 7 18 31 40 53 22 22 51 65 65 95 13 31 30 59
37 64 23 14 88 96 88 110 0 8 11 26 25 41 14 15 25 30 25 35 0 8 39 67 51 77
3 3 14 26 24 52 10 26 24 53 31 59 8 6 14 18 14 25 0 8 4 14 9 14 5 0 14 14
20 30 19 57 31 33 31 -66 0 -117 24 -228 56 -263 13 -14 24 -31 24 -37 0 -16
57 -77 63 -67 6 10 -14 96 -25 103 -4 3 -17 41 -30 85 -31 106 -30 300 1 453
12 57 21 112 21 123 0 10 5 19 10 19 6 0 10 13 10 28 0 16 11 61 25 100 14 39
25 77 25 83 0 6 6 25 14 42 8 18 20 51 25 73 13 47 46 94 67 94 8 0 14 7 14
15 0 22 72 66 118 72 35 5 43 2 64 -22 12 -15 29 -33 36 -41 6 -7 12 -20 12
-28 0 -9 4 -16 9 -16 8 0 26 -26 72 -108 11 -18 19 -41 19 -52 0 -11 5 -20 10
-20 6 0 10 -13 10 -29 0 -15 8 -39 19 -52 31 -40 54 -179 47 -284 -10 -138
-56 -372 -76 -385 -4 -3 -13 -23 -20 -45 -7 -22 -23 -58 -35 -80 -13 -22 -26
-58 -30 -79 -7 -35 -6 -37 12 -28 10 6 30 34 43 64 14 29 31 59 37 66 7 7 13
18 13 24 0 6 12 36 27 67 43 91 93 302 93 396 0 87 -18 222 -36 264 -9 20 -17
45 -19 56 -3 26 -76 179 -87 183 -4 2 -8 12 -8 23 0 10 -4 19 -9 19 -5 0 -14
13 -20 29 -20 46 -81 97 -133 110 -62 15 -104 13 -158 -8z"/>
<path d="M4978 3079 c-42 -22 -204 -182 -213 -210 -4 -11 -12 -19 -20 -19 -7
0 -15 -8 -18 -17 -4 -10 -22 -45 -42 -78 -45 -76 -80 -150 -96 -203 -7 -23
-16 -42 -21 -42 -4 0 -8 -11 -8 -24 0 -12 -4 -36 -9 -52 -5 -16 -12 -46 -16
-67 -4 -23 -10 -35 -17 -31 -7 5 -8 37 -4 98 11 164 11 176 -9 176 -31 0 -39
-42 -42 -215 -3 -297 -14 -527 -28 -630 -44 -307 -43 -351 3 -326 20 10 24 24
41 141 4 30 15 75 24 100 29 83 45 215 54 428 3 94 10 172 15 172 4 0 8 19 8
43 0 56 36 204 59 243 10 17 26 55 36 85 10 30 26 65 36 78 11 13 19 30 19 38
0 8 6 21 13 28 6 8 28 33 47 55 66 77 121 130 135 130 8 0 22 11 31 25 9 14
25 25 35 25 17 0 18 -7 15 -84 -2 -47 -11 -106 -19 -133 -8 -26 -28 -88 -43
-138 -15 -49 -31 -92 -34 -95 -4 -3 -10 -27 -14 -54 -3 -27 -13 -60 -22 -73
-8 -13 -31 -72 -50 -131 -19 -59 -41 -120 -48 -137 -8 -16 -17 -45 -21 -62 -4
-18 -11 -33 -16 -33 -5 0 -9 -9 -9 -21 0 -35 24 -16 40 32 8 24 25 60 38 79
12 19 22 41 22 49 0 7 13 40 30 72 16 33 33 78 36 102 4 23 11 45 16 48 18 12
95 258 121 389 9 41 21 100 28 131 11 51 11 59 -7 89 -24 42 -31 44 -76 19z"/>
<path d="M3963 2614 c-13 -14 -23 -35 -23 -47 -1 -12 -3 -64 -5 -115 -4 -82
-2 -96 15 -114 41 -44 48 -248 14 -438 -7 -41 -73 -223 -83 -230 -4 -3 -13
-21 -21 -40 -18 -46 -107 -218 -131 -252 -11 -14 -19 -33 -19 -42 0 -9 -4 -16
-9 -16 -5 0 -14 -14 -20 -30 -5 -17 -17 -30 -25 -30 -8 0 -29 -28 -46 -62 -18
-34 -41 -68 -51 -76 -10 -7 -19 -19 -19 -27 0 -8 -10 -25 -22 -38 -39 -41 -68
-78 -100 -126 -17 -25 -39 -55 -49 -66 -34 -37 -117 -154 -123 -173 -4 -11
-21 -33 -39 -49 -17 -17 -43 -46 -57 -64 -31 -41 -127 -137 -183 -183 -61 -48
-95 -64 -165 -72 -34 -3 -62 -11 -62 -15 0 -5 -25 -9 -55 -9 -42 0 -55 3 -55
15 0 8 -6 15 -14 15 -8 0 -25 14 -37 31 -18 26 -21 40 -17 92 6 65 34 136 55
137 7 0 46 33 86 72 40 40 86 82 101 93 15 11 47 38 71 60 24 22 64 51 90 64
25 13 66 44 91 68 25 23 50 43 56 43 15 0 119 79 136 102 7 10 28 24 45 32 18
7 59 39 91 70 33 31 81 71 108 89 26 17 48 40 48 50 0 24 -14 21 -51 -12 -17
-16 -53 -41 -80 -55 -26 -15 -76 -53 -110 -85 -34 -33 -75 -62 -90 -65 -15 -3
-30 -13 -34 -23 -6 -18 -126 -103 -145 -103 -6 0 -10 -4 -10 -10 0 -5 -7 -10
-15 -10 -7 0 -18 -6 -22 -14 -8 -14 -136 -106 -148 -106 -3 0 -34 -27 -68 -60
-34 -33 -68 -60 -74 -60 -7 0 -13 -6 -13 -14 0 -7 -29 -43 -65 -80 -66 -67
-105 -126 -105 -158 0 -10 -4 -18 -10 -18 -5 0 -10 -9 -10 -20 0 -11 5 -20 10
-20 6 0 10 -14 10 -30 0 -23 10 -41 40 -69 46 -44 120 -64 218 -60 54 2 142
34 142 51 0 4 15 14 33 23 47 22 68 36 96 70 14 16 50 52 79 79 29 27 55 60
58 72 3 13 13 26 22 29 15 5 71 70 97 114 6 9 18 25 28 36 38 41 67 80 67 90
0 6 20 33 45 60 25 28 45 56 45 62 0 7 15 28 34 47 18 19 39 50 47 68 7 18 25
45 39 60 15 15 38 52 53 82 15 31 35 60 45 65 10 5 28 31 41 58 14 26 37 63
53 81 15 18 28 41 28 51 0 10 11 30 25 45 14 15 25 34 25 42 0 7 4 14 8 14 5
0 14 19 21 43 7 23 19 49 26 57 7 8 18 31 23 50 6 19 19 58 30 85 48 122 55
159 60 300 3 111 1 154 -13 205 -31 118 -34 160 -19 234 21 102 4 134 -43 80z"/>
<path d="M3778 2146 c-9 -13 -20 -35 -24 -50 -5 -20 -3 -26 11 -26 15 0 16 -7
10 -57 -10 -81 -46 -168 -70 -168 -25 0 -38 50 -24 93 6 17 15 32 20 32 5 0 9
12 9 26 0 47 -33 25 -54 -36 -20 -61 -23 -114 -10 -175 11 -49 40 -57 79 -23
28 24 65 87 65 110 0 7 7 25 15 41 8 15 17 54 21 87 6 50 4 64 -11 80 -11 12
-18 34 -17 55 1 19 0 35 -1 35 -1 0 -10 -11 -19 -24z"/>
<path d="M1666 1745 c-9 -19 -21 -35 -26 -35 -6 0 -10 -5 -10 -11 0 -6 -13
-27 -30 -46 -16 -18 -30 -38 -30 -44 0 -6 -14 -31 -31 -56 -31 -44 -31 -45 -8
-38 26 8 99 73 99 88 0 14 24 34 37 30 7 -3 40 9 73 26 68 35 105 39 119 14
11 -23 22 -193 11 -193 -11 0 -20 -39 -10 -45 4 -2 16 12 26 33 10 20 26 45
34 54 8 9 21 24 28 33 27 33 43 14 88 -105 30 -81 56 -130 67 -130 24 0 57 13
57 21 0 5 17 24 37 42 59 52 126 168 96 167 -16 -1 -88 -57 -98 -76 -22 -43
-44 -66 -60 -62 -10 1 -32 30 -51 63 -27 48 -33 71 -34 116 0 55 -1 57 -34 73
-19 9 -38 16 -44 16 -5 0 -31 20 -56 45 -36 34 -55 45 -79 45 -35 0 -71 -21
-100 -57 -10 -13 -25 -23 -34 -23 -13 0 -15 8 -10 45 8 54 -4 58 -27 10z"/>
<path d="M2420 1759 c-30 -12 -69 -58 -70 -81 0 -22 26 -24 34 -3 3 9 18 15
37 15 l31 0 -4 -61 c-2 -33 -9 -64 -14 -67 -10 -8 -29 -60 -39 -110 -9 -46 7
-62 64 -62 39 0 52 5 74 28 15 15 27 34 27 41 0 7 12 28 26 47 15 19 24 38 20
41 -12 12 -40 -12 -60 -50 -17 -32 -70 -66 -83 -53 -3 2 -1 41 3 87 6 75 10
85 37 110 l30 28 29 -20 c17 -13 28 -29 28 -44 0 -31 15 -39 70 -36 62 3 106
18 137 47 15 14 38 30 52 37 17 8 26 20 26 36 0 36 -18 36 -63 -2 -60 -50 -94
-62 -132 -46 -28 13 -35 26 -30 58 1 13 -1 13 -14 2 -9 -8 -16 -9 -16 -3 0 5
-12 13 -27 17 -15 3 -31 12 -35 18 -6 9 -11 8 -18 -3 -6 -10 -10 -11 -10 -2 0
6 -9 12 -19 12 -10 0 -21 7 -25 15 -6 17 -29 18 -66 4z"/>
<path d="M1605 1520 c-24 -27 -46 -126 -39 -178 9 -60 31 -83 86 -89 58 -7
108 10 140 45 26 29 50 86 41 96 -12 12 -93 -42 -93 -62 0 -5 -16 -17 -35 -26
-28 -14 -38 -14 -55 -4 -22 14 -25 31 -20 156 1 45 0 82 -2 82 -3 0 -13 -9
-23 -20z"/>
</g>
</svg>
