<?xml version="1.0" encoding="UTF-8"?>
<!DOCTYPE svg PUBLIC "-//W3C//DTD SVG 1.1//EN" "http://www.w3.org/Graphics/SVG/1.1/DTD/svg11.dtd">
<!-- Creator: CorelDRAW 2021 (64 Bit) -->
<svg xmlns="http://www.w3.org/2000/svg" xml:space="preserve" width="230mm" height="297mm" version="1.1" style="shape-rendering:geometricPrecision; text-rendering:geometricPrecision; image-rendering:optimizeQuality; fill-rule:evenodd; clip-rule:evenodd"
viewBox="0 0 23000 29700"
 xmlns:xlink="http://www.w3.org/1999/xlink"
 xmlns:xodm="http://www.corel.com/coreldraw/odm/2003">
 <defs>
  <style type="text/css">
   <![CDATA[
    .fil0 {fill:#201E1E}
   ]]>
  </style>
 </defs>
 <g id="Camada_x0020_1">
  <metadata id="CorelCorpID_0Corel-Layer"/>
  <g id="_1739800933248">
   <path class="fil0" d="M3038.65 14911.53c0,2490.79 -388.13,3865.16 1288.38,3865.16 2317.13,0 -418.87,-5054.45 2180.36,-5054.45 2043.99,0 -260.63,5054.45 1883.05,5054.45 1499.03,0 1387.91,-858.37 1387.49,-2477.68 -0.4,-1548.37 -224.55,-2576.77 1090.19,-2576.77 463.04,0 821.61,351.8 936.98,747.86 144.39,495.71 54.11,1184.26 54.08,1729.81 0,406.9 -49.7,1428.4 19.53,1764.41 225,1092.44 2259.95,1226.12 2259.95,-376.92 0,-2063.08 357.79,-3954.9 -976,-5168.63 -188.42,-171.48 -685.65,-527.3 -945.97,-639.74 -1405.55,-607.24 -2494.45,-302.5 -3628.05,456.6 -692.14,-366.24 -1289.88,-792.87 -2180.35,-792.87 -1864.52,0 -3369.64,1387.37 -3369.64,3468.77z"/>
   <path class="fil0" d="M14535.08 10550.8c0,1396.89 1255.57,1090.19 2874.12,1090.19 -551.2,823.15 -2731.39,1581.85 -2404.84,2692.36 378.71,1287.94 2118.82,543.48 3160.17,813.91 347.14,90.16 632.18,376.39 632.18,755.33 0,1837.71 -4162.5,-283.1 -4162.5,1783.93 0,1379.17 1452.47,1090.17 2874.09,1090.17 4247.36,0 4276.1,-4830.85 1189.29,-5550 690.79,-600.43 1783.93,-1167.79 1783.93,-2081.25 0,-846.14 -640.47,-1486.61 -1486.61,-1486.61l-3567.86 0c-489.85,0 -891.97,402.12 -891.97,891.97z"/>
  </g>
 </g>
</svg>
