<?xml version="1.0" standalone="no"?>
<!DOCTYPE svg PUBLIC "-//W3C//DTD SVG 20010904//EN"
 "http://www.w3.org/TR/2001/REC-SVG-20010904/DTD/svg10.dtd">
<svg version="1.0" xmlns="http://www.w3.org/2000/svg"
 width="444.000000pt" height="500.000000pt" viewBox="0 0 444.000000 500.000000"
 preserveAspectRatio="xMidYMid meet">

<g transform="translate(0.000000,500.000000) scale(0.100000,-0.100000)"
fill="#000000" stroke="none">
<path d="M2240 4674 c0 -18 -18 -45 -60 -88 -87 -91 -107 -154 -74 -236 l14
-35 -7 35 c-19 93 -5 140 67 214 33 34 63 73 69 86 22 56 11 -17 -14 -90 -24
-72 -35 -202 -17 -213 4 -3 5 22 4 55 -3 44 3 82 22 143 27 85 30 112 20 139
-10 25 -24 19 -24 -10z"/>
<path d="M1476 4439 c-4 -24 -23 -51 -57 -84 -28 -28 -59 -67 -70 -87 -21 -40
-25 -123 -8 -148 7 -11 8 -6 4 18 -15 74 2 120 71 193 35 37 64 73 64 79 0 5
4 10 9 10 10 0 3 -34 -28 -128 -12 -35 -21 -82 -21 -103 0 -47 25 -113 40
-104 5 3 10 8 10 11 0 3 -4 3 -9 -1 -16 -9 -34 65 -27 113 3 24 17 80 31 124
29 92 30 98 11 123 -12 17 -14 16 -20 -16z"/>
<path d="M3001 4431 c-6 -22 -26 -53 -45 -69 -49 -43 -93 -106 -100 -145 -3
-18 0 -52 8 -77 l14 -45 -5 47 c-9 81 3 116 66 182 32 34 63 70 69 81 l11 20
1 -20 c0 -11 -11 -51 -25 -90 -28 -80 -32 -162 -10 -205 9 -17 18 -30 21 -30
2 0 -3 14 -12 32 -21 41 -14 124 21 230 19 59 22 84 15 103 -5 14 -11 25 -13
25 -2 0 -9 -18 -16 -39z"/>
<path d="M2021 4381 c-7 -15 -11 -48 -8 -72 l4 -44 1 48 c1 29 6 46 12 42 6
-4 10 7 10 24 0 38 -4 39 -19 2z"/>
<path d="M2253 4375 c0 -22 2 -30 4 -17 2 12 2 30 0 40 -3 9 -5 -1 -4 -23z"/>
<path d="M2306 4322 l-19 -27 24 22 c12 12 21 24 18 27 -2 2 -13 -8 -23 -22z"/>
<path d="M2041 4324 c0 -11 3 -14 6 -6 3 7 2 16 -1 19 -3 4 -6 -2 -5 -13z"/>
<path d="M2321 4283 c-1 -25 9 -44 43 -82 48 -54 66 -99 59 -147 -7 -44 -76
-168 -96 -172 -15 -3 -16 1 -7 23 5 14 10 56 9 93 l-1 67 -13 -50 c-29 -117
-36 -135 -52 -135 -11 0 -14 6 -9 23 3 12 8 78 11 147 l5 125 -25 -139 c-23
-128 -36 -169 -50 -154 -12 11 -25 127 -26 228 -1 89 -3 98 -9 55 -5 -27 -9
-103 -9 -168 -1 -87 -4 -118 -13 -115 -14 5 -24 36 -33 101 -9 67 -16 53 -16
-32 0 -39 -4 -71 -8 -71 -15 0 -79 66 -96 100 -17 32 -17 81 -1 125 5 13 2 11
-8 -5 -33 -54 -19 -125 39 -190 17 -19 22 -33 18 -57 l-5 -33 -64 0 c-71 0
-73 -2 -54 -72 11 -38 73 -102 116 -118 34 -13 21 -30 -22 -30 -33 0 -34 -1
-34 -40 0 -33 3 -40 20 -40 15 0 20 -7 20 -25 0 -14 5 -25 10 -25 6 0 10 -11
10 -23 0 -13 10 -32 23 -43 12 -10 16 -12 10 -4 -7 8 -13 29 -13 46 0 18 -4
36 -10 39 -5 3 -10 15 -10 27 0 11 -8 22 -20 25 -13 4 -20 14 -20 30 0 14 4
22 11 18 21 -14 59 5 59 28 0 17 -10 28 -40 41 -46 20 -85 67 -93 114 l-6 32
64 0 65 0 0 30 0 30 140 0 140 0 0 -30 0 -30 70 0 70 0 -6 -27 c-12 -52 -40
-88 -87 -113 -34 -18 -47 -31 -47 -47 0 -22 25 -37 51 -31 8 2 15 -7 17 -19 3
-18 -1 -23 -18 -23 -11 0 -23 -8 -26 -17 -3 -10 -10 -27 -14 -38 -5 -11 -10
-37 -12 -57 -3 -29 -1 -35 9 -26 7 6 13 23 13 39 0 16 5 29 10 29 6 0 10 11
10 25 0 18 5 25 20 25 17 0 20 7 20 40 0 38 -2 40 -29 40 -37 0 -49 16 -20 25
38 12 108 85 119 124 19 69 18 71 -60 71 l-70 0 0 30 c0 16 14 52 30 79 17 27
38 70 47 96 21 62 7 111 -49 171 -25 28 -44 59 -48 82 l-8 37 -1 -32z"/>
<path d="M1256 4148 c-17 -40 -19 -72 -6 -103 6 -14 8 -4 8 33 0 29 3 56 6 59
3 4 6 -5 6 -18 0 -13 4 -30 9 -38 5 -8 7 5 4 35 -7 70 -9 73 -27 32z"/>
<path d="M2784 4145 c-7 -19 -14 -47 -13 -62 1 -23 3 -20 14 17 12 44 12 44
17 15 4 -23 5 -19 7 18 0 26 -1 47 -5 47 -3 0 -12 -16 -20 -35z"/>
<path d="M3107 4159 c-4 -14 -18 -43 -33 -65 -20 -30 -22 -35 -6 -21 25 23 55
83 49 100 -2 6 -7 0 -10 -14z"/>
<path d="M1534 4078 c-19 -23 -19 -23 2 -5 11 9 24 14 29 10 4 -5 5 -2 1 5 -9
16 -10 16 -32 -10z"/>
<path d="M2810 4071 c0 -6 4 -13 10 -16 6 -3 7 1 4 9 -7 18 -14 21 -14 7z"/>
<path d="M1551 4054 c-1 -11 6 -29 15 -40 8 -10 12 -13 9 -6 -4 8 -11 26 -15
40 -7 22 -8 23 -9 6z"/>
<path d="M3082 4050 c0 -14 2 -19 5 -12 2 6 2 18 0 25 -3 6 -5 1 -5 -13z"/>
<path d="M2020 4028 c0 -20 5 -40 10 -43 13 -8 13 45 0 65 -7 11 -10 6 -10
-22z"/>
<path d="M2781 4034 c0 -11 3 -14 6 -6 3 7 2 16 -1 19 -3 4 -6 -2 -5 -13z"/>
<path d="M1395 3935 c-5 -38 -9 -118 -9 -177 -1 -77 -4 -108 -13 -108 -15 0
-33 61 -34 115 l-1 40 -10 -35 c-5 -19 -8 -54 -6 -77 2 -26 -1 -43 -7 -43 -14
0 -79 68 -94 97 -14 27 -14 83 0 120 5 15 6 24 1 18 -18 -19 -33 -83 -26 -111
8 -33 40 -83 64 -101 11 -8 15 -22 12 -47 l-4 -36 -65 0 -66 0 6 -52 c6 -47
18 -67 40 -68 4 0 1 13 -8 30 -8 16 -15 38 -15 50 0 18 6 20 65 20 l65 0 0 30
0 30 140 0 140 0 0 -30 0 -30 65 0 c64 0 65 -1 65 -26 0 -32 -36 -94 -56 -94
-8 0 -11 -6 -7 -16 5 -13 9 -12 30 8 35 32 53 71 53 113 l0 35 -69 0 -69 0 5
31 c2 17 22 63 44 102 56 103 52 177 -12 232 -19 17 -19 14 4 -13 33 -41 41
-71 34 -123 -6 -46 -75 -169 -95 -169 -10 0 -12 6 -7 18 11 28 19 142 9 142
-5 0 -17 -36 -27 -80 -12 -51 -23 -80 -31 -80 -11 0 -13 27 -10 133 3 109 1
122 -6 72 -20 -126 -41 -205 -56 -205 -17 0 -15 -13 -23 190 -6 158 -7 162
-16 95z"/>
<path d="M2924 3943 c-4 -27 -8 -103 -8 -170 -1 -89 -4 -123 -13 -123 -16 0
-33 62 -34 125 -1 44 -2 46 -9 20 -4 -16 -8 -56 -9 -87 0 -32 -5 -58 -9 -58
-5 0 -28 19 -51 42 -48 49 -65 98 -51 148 5 18 8 35 6 37 -6 7 -26 -59 -26
-87 0 -28 52 -117 73 -126 8 -3 11 -17 9 -39 l-4 -35 -64 0 -64 0 0 -35 c0
-42 18 -81 53 -113 20 -19 26 -20 30 -9 3 9 -1 17 -12 20 -20 5 -51 64 -51 96
0 19 6 21 65 21 l65 0 0 30 0 30 135 0 135 0 0 -30 0 -30 70 0 c63 0 70 -2 70
-20 0 -27 -21 -70 -35 -70 -6 0 -20 -6 -31 -14 -16 -12 -11 -12 27 0 49 16 59
34 59 100 0 23 -3 24 -70 24 -67 0 -70 1 -70 24 0 13 19 56 42 95 67 116 63
186 -13 256 l-33 30 33 -39 c37 -44 51 -75 51 -115 0 -39 -77 -191 -96 -191
-10 0 -14 6 -10 18 12 41 17 109 9 130 -7 18 -12 6 -27 -63 -12 -54 -24 -85
-32 -85 -10 0 -12 28 -9 138 l5 137 -14 -80 c-25 -149 -37 -195 -51 -195 -18
0 -30 86 -30 228 0 61 -1 112 -2 112 -1 0 -5 -21 -9 -47z"/>
<path d="M2790 3831 c0 -6 4 -13 10 -16 6 -3 7 1 4 9 -7 18 -14 21 -14 7z"/>
<path d="M1255 3810 c-3 -11 -2 -27 3 -36 8 -15 10 -14 16 2 4 10 3 20 -3 22
-5 2 -7 10 -4 18 3 8 3 14 0 14 -3 0 -8 -9 -12 -20z"/>
<path d="M2781 3798 c0 -7 4 -22 9 -33 8 -18 9 -17 9 7 1 15 -3 30 -9 33 -5 3
-10 0 -9 -7z"/>
<path d="M995 3437 c-49 -28 -85 -80 -84 -121 l1 -31 8 32 c10 45 37 82 72
101 16 10 37 22 46 29 29 21 -1 14 -43 -10z"/>
<path d="M2910 3449 c14 -6 34 -18 45 -27 12 -9 8 -5 -7 11 -16 15 -36 27 -46
26 -12 0 -9 -3 8 -10z"/>
<path d="M3340 3451 c0 -5 11 -12 24 -15 35 -9 81 -50 96 -86 16 -40 1 -80
-31 -80 -21 0 -21 1 -4 20 17 19 17 19 -13 8 -27 -10 -34 -9 -53 7 -12 11 -19
14 -15 8 5 -10 -6 -13 -45 -13 -47 0 -50 1 -38 18 13 16 12 16 -6 1 -11 -9
-43 -19 -72 -22 -29 -3 -63 -12 -75 -19 -13 -7 -27 -11 -31 -10 -5 1 -6 -2 -3
-7 4 -6 21 -4 44 6 23 10 76 17 142 20 l105 4 -48 -25 c-27 -14 -55 -30 -62
-36 -8 -7 -20 -8 -26 -4 -8 4 -9 3 -5 -5 10 -16 -12 -41 -35 -41 -11 0 -18 -3
-18 -7 3 -21 -2 -33 -16 -33 -8 0 -14 -5 -12 -12 1 -7 -11 -15 -28 -19 -16 -4
-22 -7 -12 -8 30 -2 18 -20 -18 -27 -46 -8 -85 16 -85 54 -1 23 -2 24 -11 10
-5 -10 -17 -18 -25 -18 -18 0 -9 46 14 73 25 29 0 19 -33 -13 -55 -54 -133
-75 -270 -74 -129 1 -214 17 -287 56 -25 12 -57 20 -75 19 l-33 -3 0 61 c0 77
-18 80 -22 4 -4 -82 -28 -84 -28 -3 0 38 -4 59 -10 55 -5 -3 -10 -31 -10 -61
0 -41 -4 -54 -15 -54 -12 0 -15 13 -15 60 0 33 -4 60 -10 60 -6 0 -10 -27 -10
-61 0 -81 -24 -77 -28 4 -4 76 -22 73 -22 -4 l0 -61 -34 3 c-18 2 -44 -4 -58
-13 -43 -28 -118 -48 -226 -60 -172 -19 -280 8 -369 93 -54 51 -73 64 -73 51
0 -5 11 -14 24 -21 23 -13 66 -78 66 -100 0 -17 -28 -13 -39 7 -9 14 -10 13
-11 -10 0 -38 -39 -62 -85 -54 -19 4 -35 13 -35 20 0 8 -7 17 -16 20 -8 3 -13
10 -10 15 3 5 -1 11 -9 15 -8 3 -15 12 -15 21 0 8 -8 15 -19 15 -23 0 -45 25
-35 41 4 8 3 9 -5 5 -6 -4 -18 -3 -26 4 -7 6 -35 21 -61 34 l-47 23 21 21 c29
29 15 28 -15 0 -21 -19 -27 -21 -55 -10 -30 11 -30 11 -12 -10 19 -20 19 -20
-19 -15 -20 3 -37 2 -37 -2 0 -4 -18 -15 -40 -25 -48 -21 -88 -70 -95 -117 -5
-33 -4 -33 6 4 15 51 69 102 127 118 173 49 294 -38 351 -253 42 -156 57 -411
31 -533 -26 -124 -109 -261 -230 -380 -53 -52 -69 -52 -22 0 15 17 -9 -5 -53
-51 -76 -77 -142 -179 -133 -206 2 -6 10 7 17 28 14 42 92 150 103 143 4 -2
26 14 49 36 27 26 39 33 34 20 -44 -112 -57 -160 -62 -225 -5 -64 -10 -80 -34
-108 -47 -53 -35 -128 29 -177 19 -15 20 -65 1 -78 -41 -26 -128 36 -153 110
-9 26 -16 59 -16 75 0 24 4 28 28 28 43 0 86 50 84 97 -4 95 -1 115 24 165 17
34 21 48 11 39 -18 -14 -57 -111 -57 -141 0 -13 -7 -20 -18 -20 -20 0 -59 -36
-49 -46 3 -3 15 4 27 16 47 47 78 -1 38 -60 -51 -76 -125 -38 -122 60 2 45 32
122 54 135 5 3 10 12 10 18 -1 26 -51 -51 -66 -101 -16 -54 -12 -99 11 -137 7
-11 15 -44 18 -74 11 -94 68 -166 143 -178 42 -7 35 -23 -11 -23 -24 0 -45 9
-70 31 -45 39 -55 58 -77 139 -17 61 -17 62 -12 17 11 -94 56 -164 124 -191
73 -29 110 3 110 96 0 130 34 328 70 413 25 57 77 105 115 105 64 0 105 -56
84 -117 -13 -40 -32 -39 -39 3 -3 19 -15 33 -33 42 -59 28 -117 -40 -154 -178
-12 -48 -16 -101 -15 -204 2 -182 -9 -206 -97 -206 -20 0 -46 7 -57 15 -10 8
-23 14 -29 14 -5 0 -1 -6 9 -14 11 -8 15 -15 9 -15 -6 0 -16 7 -23 15 -7 8 -9
15 -4 15 4 0 -5 13 -21 30 -15 16 -31 27 -35 25 -4 -3 -7 1 -6 8 1 15 -17 22
-22 8 -6 -17 71 -93 113 -112 22 -10 60 -19 85 -19 149 0 236 147 185 315 -19
66 -13 67 15 3 28 -65 31 -174 7 -229 -21 -48 -78 -96 -122 -105 -89 -16 -192
13 -259 74 -39 36 -84 137 -91 203 l-5 54 15 -52 c24 -84 44 -128 55 -117 12
12 -18 96 -31 88 -4 -2 -13 22 -20 55 -11 59 -39 93 -39 48 0 -13 3 -17 8 -10
4 6 7 -17 8 -50 2 -158 139 -307 280 -307 31 0 33 -3 53 -63 31 -92 87 -182
160 -254 57 -57 94 -82 75 -51 -4 7 -3 8 5 4 6 -4 9 -11 6 -16 -5 -8 90 -70
108 -70 4 0 7 14 7 30 l0 30 70 -53 c310 -236 769 -302 1158 -166 112 40 225
99 312 166 l70 53 0 -30 c0 -16 3 -30 8 -30 11 0 112 59 112 66 0 3 -5 2 -12
-2 -7 -4 -8 -3 -4 5 4 6 12 9 17 6 25 -16 154 126 205 227 36 70 29 72 -9 3
-43 -81 -80 -131 -85 -117 -2 7 -9 9 -15 5 -7 -3 -8 -2 -4 3 5 5 14 9 20 9 13
0 17 25 4 25 -4 0 -21 -15 -38 -35 -36 -40 -30 -69 7 -34 13 12 24 20 24 18 0
-3 -21 -25 -47 -49 -26 -25 -37 -33 -25 -19 42 48 8 38 -58 -17 -59 -48 -90
-65 -90 -48 0 4 33 42 74 84 45 47 78 92 86 116 7 21 28 68 47 104 18 36 36
80 39 98 7 36 8 36 35 22 11 -6 19 -21 19 -35 0 -28 -36 -129 -57 -162 -8 -12
-12 -27 -8 -33 9 -15 27 -1 21 17 -3 8 -2 12 3 8 10 -5 65 103 77 149 7 29 24
45 24 24 0 -9 2 -10 8 -1 4 6 23 13 42 16 25 3 18 4 -22 5 -95 3 -141 30 -181
107 -29 57 -28 162 3 233 28 64 34 63 15 -3 -38 -126 1 -247 95 -295 46 -23
116 -26 164 -6 46 19 118 86 112 103 -3 8 -2 12 3 8 13 -7 48 69 68 149 12 51
19 64 24 50 11 -27 9 42 -2 81 -7 25 -7 23 -4 -12 3 -24 1 -43 -4 -43 -4 0
-14 -27 -20 -60 -7 -33 -16 -58 -20 -55 -5 2 -16 -15 -25 -39 -9 -25 -36 -66
-59 -92 -23 -26 -41 -50 -40 -53 1 -3 -1 -8 -4 -11 -4 -3 -3 1 1 8 10 16 -4
15 -28 -3 -11 -8 -37 -15 -57 -15 -88 0 -99 24 -96 207 2 152 -9 219 -52 305
-34 67 -78 95 -118 76 -18 -9 -30 -23 -33 -42 -11 -62 -44 -30 -42 39 2 58 74
93 129 62 76 -42 127 -207 140 -450 7 -139 18 -162 77 -160 73 2 149 96 160
198 l5 50 -10 -45 c-17 -71 -39 -116 -73 -149 -41 -40 -88 -54 -113 -35 -17
12 -16 13 11 14 71 0 142 84 153 181 3 30 15 72 26 93 18 34 19 45 9 91 -11
53 -58 142 -69 131 -4 -3 1 -14 9 -23 50 -58 67 -157 35 -206 -30 -46 -91 -29
-117 32 -23 56 10 81 51 40 11 -11 23 -18 26 -15 10 10 -29 46 -49 46 -10 0
-18 7 -18 18 0 33 -20 90 -46 127 -14 21 -23 39 -21 42 8 7 73 -78 101 -132
15 -27 24 -39 20 -25 -13 50 -60 116 -143 200 -48 47 -65 63 -38 35 68 -73 58
-80 -13 -10 -135 133 -217 268 -240 396 -34 186 5 519 77 650 57 106 157 159
262 139 101 -19 146 -54 170 -130 l11 -35 -5 34 c-7 49 -47 96 -104 122 -42
19 -49 25 -41 40 26 47 -11 114 -80 149 -44 22 -50 24 -50 11z m-1041 -467
c12 -9 31 -29 40 -46 l18 -29 12 29 c15 36 59 62 106 62 29 0 45 -8 71 -34 20
-20 35 -45 35 -60 1 -14 2 -34 3 -43 1 -14 -8 -19 -41 -21 -42 -3 -43 -2 -43
26 0 16 -7 35 -15 42 -26 21 -45 -5 -45 -61 l0 -49 115 0 115 0 0 -45 0 -45
-115 0 -114 0 -3 -87 -3 -88 -42 -3 -43 -3 0 90 0 91 -72 0 -73 0 0 -87 0 -88
-42 -3 -43 -3 0 90 c0 90 0 91 -25 91 -24 0 -25 -3 -25 -61 0 -56 -3 -64 -34
-95 -26 -26 -42 -34 -70 -34 -79 0 -126 54 -126 144 l0 46 -61 0 -61 0 6 31
c3 17 6 38 6 46 0 11 19 13 97 11 l96 -3 -2 -76 c-2 -62 1 -80 17 -99 17 -21
22 -22 36 -11 12 11 16 33 16 102 l0 89 65 0 65 0 0 51 c0 62 21 109 58 131
34 22 91 23 121 2z m-382 -735 c-2 -22 -11 -47 -18 -55 -12 -11 -12 -41 -1
-191 7 -98 14 -312 14 -475 l1 -298 92 0 92 0 0 223 c1 202 14 500 29 668 4
52 3 68 -10 78 -10 8 -16 29 -16 52 l0 39 95 0 95 0 0 -37 c0 -20 -7 -44 -14
-52 -13 -14 -13 -46 0 -251 8 -129 16 -342 17 -472 l2 -237 -95 -4 c-52 -1
-13 -4 88 -5 l182 -2 1 33 c1 17 1 97 0 177 -1 135 25 701 34 727 2 6 -3 17
-11 24 -9 7 -13 21 -11 31 3 10 1 18 -4 18 -5 0 -9 11 -9 25 l0 25 100 0 100
0 0 -25 c0 -21 -5 -25 -32 -26 -31 -2 -31 -2 -5 -6 29 -5 35 -24 13 -43 -8 -6
-13 -17 -11 -23 2 -7 11 -136 20 -287 8 -151 18 -289 20 -307 3 -17 1 -34 -5
-38 -15 -9 -13 -230 3 -256 10 -17 9 -22 -7 -35 -19 -13 -18 -14 15 -14 32 0
36 -3 46 -40 6 -22 8 -42 4 -44 -3 -2 -246 -4 -538 -3 l-533 0 0 24 c0 12 4
23 9 23 5 0 7 9 4 20 -5 19 0 20 108 22 l114 2 -90 5 c-88 6 -103 13 -88 43 6
12 6 245 1 255 -3 4 -1 64 4 133 30 412 33 510 19 524 -7 8 -16 33 -18 55 l-5
41 102 0 102 0 -5 -41z m-643 -48 c12 -19 -6 -38 -62 -64 -66 -30 -113 -72
-153 -136 -34 -53 -36 -50 -9 14 11 26 17 52 13 58 -3 7 -3 9 2 5 4 -4 20 10
35 31 51 70 154 124 174 92z m1922 -12 c51 -24 95 -72 129 -139 29 -57 34 -89
7 -45 -31 50 -92 102 -153 131 -57 27 -75 46 -63 65 8 14 34 11 80 -12z
m-1871 -81 c25 -20 27 -25 23 -85 -2 -40 -10 -69 -20 -79 -14 -14 -16 -12 -22
21 -10 53 -46 85 -94 85 -99 0 -165 -131 -192 -382 -6 -57 -13 -105 -16 -107
-10 -10 -2 212 11 282 7 44 11 86 8 95 -4 13 -3 14 5 4 7 -11 12 -7 20 15 17
48 71 113 119 143 58 37 117 40 158 8z m1896 -6 c119 -76 169 -210 167 -447
l0 -110 -18 130 c-34 259 -93 375 -189 375 -51 0 -79 -23 -92 -76 -11 -41 -13
-44 -27 -30 -9 9 -17 40 -20 75 -4 54 -2 62 21 85 37 37 98 36 158 -2z m184
-85 c4 5 5 3 2 -3 -4 -6 6 -36 22 -65 33 -62 50 -139 31 -139 -9 0 -11 -11 -7
-37 8 -47 52 -93 89 -93 24 0 28 -4 28 -27 0 -81 -61 -173 -125 -189 -61 -15
-85 38 -37 83 62 59 70 122 22 176 -24 28 -30 44 -30 80 0 58 -19 149 -30 142
-4 -3 -6 5 -3 17 4 19 3 20 -7 8 -9 -12 -10 -11 -5 7 4 13 -2 39 -16 65 l-21
43 39 -38 c22 -20 43 -34 48 -30z m-2395 19 c0 -2 -8 -10 -17 -17 -16 -13 -17
-12 -4 4 13 16 21 21 21 13z m229 -113 c12 -44 5 -62 -27 -70 -20 -5 -30 0
-47 21 l-22 28 -21 -27 c-15 -19 -19 -36 -17 -63 4 -35 4 -35 -4 -7 -8 27 -9
27 -10 6 0 -13 13 -52 30 -87 61 -123 49 -246 -31 -318 -36 -32 -103 -57 -117
-42 -4 3 3 6 14 6 11 0 30 12 44 26 23 25 24 31 25 177 1 159 14 240 53 314
44 86 111 105 130 36z m2005 18 c27 -24 62 -98 77 -166 7 -33 13 -126 13 -207
1 -141 2 -147 25 -172 14 -14 34 -27 45 -27 17 -1 18 -2 3 -6 -55 -14 -147 61
-168 139 -17 63 -6 148 30 224 17 36 31 76 30 88 -1 19 -2 19 -10 -4 -8 -22
-8 -21 -4 7 3 24 -2 40 -18 59 l-23 26 -17 -26 c-20 -30 -47 -33 -70 -8 -13
15 -15 25 -6 54 13 49 49 57 93 19z m-2254 -298 l-1 -88 -24 28 c-16 18 -25
40 -25 63 0 34 24 84 41 84 5 0 9 -39 9 -87z m2444 65 c24 -35 20 -92 -9 -125
l-24 -28 -1 88 c0 89 7 103 34 65z m-2609 -278 c10 -11 16 -20 13 -20 -3 0
-13 9 -23 20 -10 11 -16 20 -13 20 3 0 13 -9 23 -20z m2765 17 c0 -2 -10 -12
-22 -23 l-23 -19 19 23 c18 21 26 27 26 19z m-80 -67 c-8 -5 -19 -10 -25 -10
-5 0 -3 5 5 10 8 5 20 10 25 10 6 0 3 -5 -5 -10z m-2380 -48 c0 -10 17 -54 38
-98 22 -43 45 -97 52 -118 8 -24 41 -69 87 -117 41 -43 73 -84 71 -90 -5 -15
-108 67 -164 129 -29 33 -43 42 -48 33 -6 -8 9 -31 40 -64 l49 -52 -54 50
c-81 76 -137 169 -175 290 -5 16 -1 21 17 23 21 1 25 -5 36 -50 6 -28 10 -53
8 -55 -2 -2 -14 20 -26 49 -12 29 -19 40 -16 25 9 -43 65 -158 75 -152 5 3 12
0 16 -6 5 -8 3 -9 -6 -4 -8 5 -11 3 -8 -6 3 -8 10 -13 16 -12 6 2 9 -3 6 -11
-6 -16 12 -31 21 -17 3 6 -6 28 -19 50 -28 43 -66 149 -66 180 0 11 8 25 18
30 25 15 32 13 32 -7z m194 -13 c38 -18 41 -39 6 -39 -38 0 -70 -41 -70 -88 0
-46 31 -108 80 -165 22 -25 40 -55 40 -68 0 -21 -5 -18 -51 26 -71 70 -109
138 -109 198 0 58 20 109 51 131 28 19 22 19 53 5z m1790 0 c56 -26 75 -142
36 -218 -22 -45 -115 -151 -131 -151 -20 0 -6 35 31 77 49 57 80 119 80 165 0
47 -32 88 -70 88 -42 0 -24 32 27 49 1 1 13 -4 27 -10z m221 -38 c-7 -22 -21
-52 -30 -68 -9 -15 -13 -19 -9 -8 4 11 12 41 17 68 6 26 17 47 24 47 9 0 9 -8
-2 -39z m-1978 -28 c5 -12 -6 -28 -37 -56 -45 -39 -57 -37 -46 9 13 51 69 83
83 47z m1732 0 c12 -10 24 -35 28 -57 l6 -40 -29 21 c-45 32 -67 61 -61 78 8
20 30 19 56 -2z m-1726 -184 c11 -8 19 -59 9 -59 -9 0 -62 70 -82 110 -11 22
-8 21 26 -10 22 -19 43 -38 47 -41z m1731 39 c-21 -41 -65 -94 -73 -89 -15 10
5 48 42 83 23 20 43 37 45 38 1 0 -5 -15 -14 -32z m-994 -154 c0 -40 -4 -55
-12 -52 -7 3 -15 18 -16 34 -2 16 -9 32 -15 36 -14 8 9 38 29 38 10 0 14 -15
14 -56z m89 34 l8 -22 12 22 c13 25 51 27 59 3 3 -9 -2 -11 -19 -7 l-24 6 23
-11 c12 -7 22 -17 22 -23 1 -6 7 4 15 22 18 40 51 44 65 6 21 -55 -26 -111
-57 -68 -13 17 -13 17 -26 0 -18 -25 -53 -13 -66 22 -8 23 -10 24 -10 6 -1
-30 -28 -51 -48 -38 -21 13 -15 30 11 27 19 -3 19 -2 -2 7 -44 19 -42 70 3 70
17 0 28 -7 34 -22z"/>
<path d="M2222 2908 c-7 -7 -12 -34 -12 -60 l0 -48 70 0 c63 0 70 2 70 20 0
17 -7 20 -40 20 -37 0 -40 2 -40 28 0 26 -15 52 -30 52 -3 0 -11 -5 -18 -12z"/>
<path d="M1787 2233 c18 -2 50 -2 70 0 21 2 7 4 -32 4 -38 0 -55 -2 -38 -4z"/>
<path d="M2168 2233 c12 -2 32 -2 45 0 12 2 2 4 -23 4 -25 0 -35 -2 -22 -4z"/>
<path d="M2538 2233 c12 -2 32 -2 45 0 12 2 2 4 -23 4 -25 0 -35 -2 -22 -4z"/>
<path d="M2150 974 c0 -8 5 -12 10 -9 6 4 8 11 5 16 -9 14 -15 11 -15 -7z"/>
<path d="M2310 960 c0 -16 5 -30 10 -30 6 0 10 14 10 30 0 17 -4 30 -10 30 -5
0 -10 -13 -10 -30z"/>
<path d="M2230 940 c0 -5 5 -10 10 -10 6 0 10 5 10 10 0 6 -4 10 -10 10 -5 0
-10 -4 -10 -10z"/>
<path d="M1424 3418 l-19 -23 23 19 c21 18 27 26 19 26 -2 0 -12 -10 -23 -22z"/>
<path d="M1478 3423 c7 -3 16 -2 19 1 4 3 -2 6 -13 5 -11 0 -14 -3 -6 -6z"/>
<path d="M2092 3421 c-10 -6 -9 -10 7 -14 16 -4 21 -13 21 -37 0 -18 4 -29 10
-25 14 9 13 58 -2 73 -14 14 -19 15 -36 3z"/>
<path d="M2176 3421 c-3 -5 1 -11 9 -15 9 -3 15 -18 15 -36 0 -18 4 -29 10
-25 6 3 10 19 10 34 0 37 -30 66 -44 42z"/>
<path d="M2257 3423 c-11 -11 -8 -23 6 -20 7 1 13 -11 15 -31 2 -20 8 -32 15
-29 11 3 11 62 0 80 -5 9 -27 9 -36 0z"/>
<path d="M2898 3423 c7 -3 16 -2 19 1 4 3 -2 6 -13 5 -11 0 -14 -3 -6 -6z"/>
<path d="M3069 3393 l-34 -38 38 34 c20 19 37 36 37 38 0 8 -8 0 -41 -34z"/>
<path d="M1090 3410 c-30 -6 -32 -8 -8 -9 16 -1 28 -8 30 -18 3 -13 6 -10 10
10 3 15 5 26 4 26 0 -1 -17 -5 -36 -9z"/>
<path d="M1220 3416 c0 -2 7 -7 16 -10 8 -3 12 -2 9 4 -6 10 -25 14 -25 6z"/>
<path d="M1305 3400 c10 -11 20 -20 23 -20 3 0 -3 9 -13 20 -10 11 -20 20 -23
20 -3 0 3 -9 13 -20z"/>
<path d="M1515 3391 c0 -22 3 -27 12 -19 9 7 10 16 2 29 -13 25 -14 24 -14
-10z"/>
<path d="M2860 3401 c-7 -14 -7 -22 0 -26 6 -4 7 -12 4 -18 -4 -7 -4 -9 1 -5
7 7 14 68 8 68 -1 0 -7 -9 -13 -19z"/>
<path d="M3271 3388 c1 -16 3 -18 6 -6 2 9 16 19 31 21 24 4 24 4 -5 6 -28 1
-33 -2 -32 -21z"/>
<path d="M974 3378 l-19 -23 23 19 c21 18 27 26 19 26 -2 0 -12 -10 -23 -22z"/>
<path d="M3340 3396 c0 -2 7 -7 16 -10 8 -3 12 -2 9 4 -6 10 -25 14 -25 6z"/>
<path d="M3405 3380 c10 -11 20 -20 23 -20 3 0 -3 9 -13 20 -10 11 -20 20 -23
20 -3 0 3 -9 13 -20z"/>
<path d="M1183 3367 c12 -25 106 -62 103 -40 -1 7 -6 16 -11 20 -4 5 -5 2 0
-6 6 -11 4 -13 -9 -8 -10 4 -29 10 -42 13 -13 3 -26 15 -29 25 -4 10 -10 19
-15 19 -4 0 -3 -10 3 -23z"/>
<path d="M1371 3353 c-1 -23 3 -44 7 -47 4 -2 6 12 4 32 -5 56 -10 62 -11 15z"/>
<path d="M1401 3374 c0 -11 3 -14 6 -6 3 7 2 16 -1 19 -3 4 -6 -2 -5 -13z"/>
<path d="M1920 3375 c-19 -22 -8 -25 13 -3 9 10 13 18 8 18 -5 0 -14 -7 -21
-15z"/>
<path d="M1981 3387 c2 -1 15 -11 29 -22 l25 -20 -19 23 c-11 12 -24 22 -29
22 -6 0 -8 -1 -6 -3z"/>
<path d="M2374 3368 l-19 -23 25 20 c14 11 27 21 29 22 2 2 0 3 -6 3 -5 0 -18
-10 -29 -22z"/>
<path d="M3010 3348 c-3 -27 -5 -48 -4 -48 1 0 9 12 19 26 9 15 12 24 7 20 -6
-4 -12 5 -14 21 -3 20 -5 14 -8 -19z"/>
<path d="M3195 3370 c-3 -11 -14 -20 -22 -20 -23 0 -13 -6 22 -14 22 -5 26 -4
15 3 -12 9 -13 14 -2 31 7 11 8 20 3 20 -5 0 -13 -9 -16 -20z"/>
<path d="M989 3363 c-13 -16 -12 -17 4 -4 9 7 17 15 17 17 0 8 -8 3 -21 -13z"/>
<path d="M3144 3364 c-18 -14 -18 -15 4 -4 12 6 22 13 22 15 0 8 -5 6 -26 -11z"/>
<path d="M3380 3376 c0 -2 8 -10 18 -17 15 -13 16 -12 3 4 -13 16 -21 21 -21
13z"/>
<path d="M1621 3341 c-15 -15 -17 -22 -7 -18 9 4 16 3 16 -2 0 -5 -9 -11 -21
-14 -17 -5 -19 -8 -8 -19 19 -21 51 14 47 50 l-3 27 -24 -24z"/>
<path d="M2738 3340 c-4 -23 0 -34 14 -41 10 -5 18 -17 19 -27 0 -14 2 -14 6
-2 3 8 11 18 17 22 6 5 2 8 -11 8 -25 0 -41 19 -25 29 7 4 6 12 -3 24 -11 16
-13 15 -17 -13z"/>
<path d="M2471 3344 c0 -11 3 -14 6 -6 3 7 2 16 -1 19 -3 4 -6 -2 -5 -13z"/>
<path d="M1402 3330 c0 -14 2 -19 5 -12 2 6 2 18 0 25 -3 6 -5 1 -5 -13z"/>
<path d="M3109 3348 c-5 -18 -6 -38 -1 -34 7 8 12 36 6 36 -2 0 -4 -1 -5 -2z"/>
<path d="M2981 3324 c0 -11 3 -14 6 -6 3 7 2 16 -1 19 -3 4 -6 -2 -5 -13z"/>
<path d="M3288 3333 c7 -3 16 -2 19 1 4 3 -2 6 -13 5 -11 0 -14 -3 -6 -6z"/>
<path d="M1129 3318 c12 -17 10 -18 -35 -19 -29 -1 -10 -5 46 -9 52 -4 112
-15 132 -23 23 -10 40 -12 44 -6 3 5 2 8 -3 7 -4 -1 -17 3 -29 9 -11 7 -45 15
-75 19 -30 3 -63 14 -74 23 -18 15 -19 15 -6 -1z"/>
<path d="M2021 3307 c-8 -15 -23 -29 -33 -33 -11 -3 -17 -8 -15 -11 3 -2 15 0
26 7 33 17 26 -7 -11 -43 -25 -24 -27 -28 -8 -16 32 21 62 72 58 100 -3 22 -3
22 -17 -4z"/>
<path d="M2350 3309 c0 -10 5 -19 11 -19 5 0 7 -5 4 -10 -10 -16 21 -57 56
-76 17 -8 33 -13 35 -11 3 2 -9 10 -26 17 -29 12 -60 44 -60 63 0 4 9 3 21 -3
31 -17 28 -9 -8 27 -28 27 -33 28 -33 12z"/>
<path d="M2417 3319 c7 -7 15 -10 18 -7 3 3 -2 9 -12 12 -14 6 -15 5 -6 -5z"/>
<path d="M3054 3297 l-29 -32 30 25 c17 14 32 26 34 28 2 1 2 4 -1 7 -2 3 -18
-10 -34 -28z"/>
<path d="M1553 3288 c-17 -23 -25 -44 -9 -24 9 11 22 23 28 28 9 5 9 8 2 8 -6
0 -16 -6 -21 -12z"/>
<path d="M2811 3297 c2 -1 13 -9 24 -17 19 -14 19 -14 6 3 -7 9 -18 17 -24 17
-6 0 -8 -1 -6 -3z"/>
<path d="M1659 3253 l-24 -28 30 25 c17 14 32 26 34 28 2 1 0 2 -6 2 -5 0 -20
-12 -34 -27z"/>
<path d="M2690 3276 c0 -2 7 -7 16 -10 8 -3 12 -2 9 4 -6 10 -25 14 -25 6z"/>
<path d="M2926 3263 c-6 -14 -5 -15 5 -6 7 7 10 15 7 18 -3 3 -9 -2 -12 -12z"/>
<path d="M2458 3263 c7 -3 16 -2 19 1 4 3 -2 6 -13 5 -11 0 -14 -3 -6 -6z"/>
<path d="M1138 3253 c7 -3 16 -2 19 1 4 3 -2 6 -13 5 -11 0 -14 -3 -6 -6z"/>
<path d="M1450 3218 c24 -27 45 -48 47 -48 8 0 0 9 -44 50 l-48 45 45 -47z"/>
<path d="M2935 3218 l-40 -43 43 40 c39 36 47 45 39 45 -2 0 -21 -19 -42 -42z"/>
<path d="M3014 3239 c-19 -22 -19 -22 4 -8 12 8 22 17 22 21 0 12 -6 9 -26
-13z"/>
<path d="M3238 3253 c7 -3 16 -2 19 1 4 3 -2 6 -13 5 -11 0 -14 -3 -6 -6z"/>
<path d="M1713 3234 c-3 -9 3 -24 18 -37 l23 -22 -18 22 c-10 12 -16 29 -13
38 4 8 4 15 1 15 -2 0 -7 -7 -11 -16z"/>
<path d="M1345 3220 c10 -11 20 -20 23 -20 3 0 -3 9 -13 20 -10 11 -20 20 -23
20 -3 0 3 -9 13 -20z"/>
<path d="M1550 3220 c6 -11 13 -20 16 -20 2 0 0 9 -6 20 -6 11 -13 20 -16 20
-2 0 0 -9 6 -20z"/>
<path d="M1610 3234 c0 -6 15 -23 33 -40 l32 -29 -30 35 c-16 19 -31 37 -32
39 -2 2 -3 0 -3 -5z"/>
<path d="M2671 3231 c-1 -8 -9 -24 -18 -35 -16 -20 -16 -20 6 0 13 12 21 28
18 35 -4 11 -6 11 -6 0z"/>
<path d="M3034 3218 l-19 -23 23 19 c12 11 22 21 22 23 0 8 -8 2 -26 -19z"/>
<path d="M1305 3210 c10 -11 20 -20 23 -20 3 0 -3 9 -13 20 -10 11 -20 20 -23
20 -3 0 3 -9 13 -20z"/>
<path d="M1760 3221 c0 -13 39 -35 48 -27 3 3 0 6 -6 6 -6 0 -18 7 -26 16 -9
8 -16 11 -16 5z"/>
<path d="M3070 3205 c-13 -14 -22 -27 -19 -29 2 -2 14 10 27 25 29 36 24 38
-8 4z"/>
<path d="M1500 3216 c0 -2 8 -10 18 -17 15 -13 16 -12 3 4 -13 16 -21 21 -21
13z"/>
<path d="M1650 3216 c0 -2 8 -10 18 -17 15 -13 16 -12 3 4 -13 16 -21 21 -21
13z"/>
<path d="M2719 3203 c-13 -16 -12 -17 4 -4 16 13 21 21 13 21 -2 0 -10 -8 -17
-17z"/>
<path d="M2730 3188 c-19 -16 -26 -26 -15 -20 18 9 64 53 54 52 -2 -1 -20 -15
-39 -32z"/>
<path d="M3109 3203 c-13 -16 -12 -17 4 -4 16 13 21 21 13 21 -2 0 -10 -8 -17
-17z"/>
<path d="M2590 3200 c-9 -6 -10 -10 -3 -10 6 0 15 5 18 10 8 12 4 12 -15 0z"/>
<path d="M2799 3193 c-13 -16 -12 -17 4 -4 16 13 21 21 13 21 -2 0 -10 -8 -17
-17z"/>
<path d="M1980 3185 c-14 -8 -20 -14 -14 -15 5 0 19 7 30 15 24 18 16 19 -16
0z"/>
<path d="M893 3160 c-39 -23 -53 -48 -53 -94 0 -48 8 -65 42 -82 43 -22 82 -1
86 47 2 23 -2 40 -12 49 -10 8 -16 8 -16 2 0 -6 5 -14 10 -17 19 -12 11 -54
-14 -70 -20 -14 -29 -14 -48 -4 -32 17 -38 28 -38 72 0 74 62 122 120 92 46
-24 70 -62 70 -112 0 -37 -6 -50 -38 -84 -31 -34 -46 -42 -85 -46 -45 -5 -49
-4 -87 35 -25 27 -42 57 -48 84 -6 24 -10 33 -11 20 -2 -37 24 -85 63 -120 55
-48 114 -42 175 18 31 32 32 32 52 14 32 -29 43 -54 50 -114 l6 -55 2 48 c1
52 -26 119 -56 136 -13 7 -16 20 -14 54 3 51 -17 97 -51 121 -21 15 -21 16 -3
16 44 0 145 -87 145 -125 0 -6 7 -20 15 -31 14 -18 14 -17 5 9 -26 73 -71 127
-123 146 -44 17 -109 13 -144 -9z"/>
<path d="M1750 3170 c-16 -10 82 -24 125 -17 22 3 17 4 -17 6 -26 0 -57 5 -71
10 -13 5 -30 6 -37 1z"/>
<path d="M2617 3173 c-4 -3 -37 -10 -75 -14 l-67 -7 72 2 c66 1 94 9 81 21 -2
3 -8 2 -11 -2z"/>
<path d="M3350 3169 c-32 -13 -78 -56 -96 -91 -24 -46 -34 -78 -25 -78 5 0 12
12 16 28 16 67 73 122 140 137 l30 7 -23 -17 c-33 -24 -54 -72 -51 -118 2 -35
-3 -48 -29 -75 -32 -34 -48 -94 -39 -143 3 -15 5 -7 6 19 1 52 21 100 50 126
21 20 22 19 60 -18 67 -66 146 -59 199 18 12 17 24 47 27 66 4 28 3 26 -10
-11 -29 -89 -105 -130 -174 -94 -51 26 -81 71 -81 122 0 41 5 51 40 85 45 42
64 46 100 21 39 -27 49 -45 50 -88 0 -46 -6 -57 -38 -74 -19 -10 -28 -10 -48
4 -25 16 -33 58 -14 70 6 3 10 11 10 17 0 7 -6 6 -15 -2 -20 -16 -19 -74 1
-90 25 -21 75 -16 96 9 22 29 24 98 2 129 -32 47 -120 66 -184 41z"/>
<path d="M2757 3159 c7 -7 15 -10 18 -7 3 3 -2 9 -12 12 -14 6 -15 5 -6 -5z"/>
<path d="M1645 3150 c-5 -8 71 -21 119 -19 l31 1 -35 9 c-53 13 -109 18 -115
9z"/>
<path d="M2640 3144 l-45 -12 45 -1 c25 0 51 3 58 8 24 15 -9 18 -58 5z"/>
<path d="M2720 3150 c0 -5 7 -10 16 -10 8 0 12 5 9 10 -3 6 -10 10 -16 10 -5
0 -9 -4 -9 -10z"/>
<path d="M1164 3107 c49 -84 70 -244 41 -314 -9 -20 -13 -44 -10 -53 7 -22
-29 -120 -57 -155 -28 -36 -68 -31 -88 12 -15 32 -57 52 -80 38 -18 -11 -11
-71 15 -108 13 -20 20 -39 15 -42 -22 -13 -10 -67 20 -95 29 -27 30 -29 9 -35
-11 -4 -18 -9 -15 -12 9 -10 116 59 140 90 14 18 36 57 50 87 30 64 34 47 7
-31 -38 -110 -99 -196 -181 -252 -24 -17 -24 -17 8 -2 115 55 207 249 227 477
6 74 -9 102 -20 36 -10 -64 -70 -181 -110 -217 -50 -43 -103 -43 -139 0 -33
38 -37 99 -7 99 11 0 34 -18 51 -40 36 -46 64 -51 99 -19 45 42 91 199 91 311
0 93 -46 242 -81 264 -6 4 1 -14 15 -39z m74 -522 c0 -16 -2 -15 -8 5 -7 21
-8 22 -9 5 -3 -69 -113 -215 -161 -215 -33 0 -62 37 -58 73 3 30 5 32 47 34
58 2 108 38 146 101 30 51 44 50 43 -3z"/>
<path d="M1550 3146 c0 -2 7 -7 16 -10 8 -3 12 -2 9 4 -6 10 -25 14 -25 6z"/>
<path d="M3220 3118 c-49 -79 -69 -211 -50 -333 15 -96 42 -170 78 -207 36
-39 64 -36 102 12 41 51 70 54 70 6 0 -52 -41 -96 -91 -96 -52 0 -99 42 -143
130 -19 38 -37 66 -42 62 -4 -4 -4 -1 0 6 10 17 -4 96 -15 85 -13 -13 8 -191
32 -268 40 -133 118 -245 194 -281 l30 -14 -25 17 c-88 63 -142 137 -180 249
-29 83 -24 98 8 29 16 -33 40 -73 54 -90 36 -42 150 -99 182 -91 31 8 48 36
35 57 -7 11 -9 9 -9 -7 0 -37 -25 -49 -70 -35 -22 6 -40 16 -40 21 0 6 -7 10
-15 10 -9 0 -35 18 -59 40 -44 41 -88 123 -101 190 -6 34 -5 33 29 -20 44 -69
93 -103 149 -104 40 -1 42 -3 45 -33 2 -22 -3 -38 -17 -52 -12 -12 -17 -21
-12 -21 29 0 55 90 31 105 -5 3 2 22 15 42 26 37 33 97 15 108 -23 14 -65 -6
-80 -38 -16 -35 -51 -47 -76 -26 -25 21 -66 110 -68 148 -2 20 -9 62 -16 93
-18 79 -1 199 39 279 32 64 32 78 1 27z"/>
<path d="M1146 2795 c-14 -54 -46 -76 -40 -27 l4 27 -9 -28 c-6 -16 -18 -35
-27 -41 -11 -9 -15 -21 -11 -35 3 -13 1 -21 -8 -21 -7 0 -19 -8 -26 -17 -12
-15 -12 -16 1 -7 8 5 35 9 59 9 38 0 47 5 74 37 17 21 28 40 25 44 -3 3 -14
-8 -24 -25 -24 -40 -58 -58 -79 -41 -24 20 -18 45 14 57 34 12 64 54 59 80 -3
13 -6 9 -12 -12z"/>
<path d="M3235 2795 c6 -32 46 -75 71 -75 19 0 18 -34 -1 -50 -21 -17 -55 1
-79 41 -10 17 -20 28 -23 25 -8 -7 36 -65 58 -77 11 -6 34 -7 50 -4 19 4 36 2
47 -7 15 -12 16 -11 3 5 -7 9 -19 17 -26 17 -9 0 -11 8 -8 21 4 14 0 26 -11
35 -9 6 -21 25 -27 41 l-9 28 4 -27 c6 -48 -21 -30 -43 27 l-11 30 5 -30z"/>
<path d="M793 2555 c-110 -47 -151 -293 -65 -388 28 -32 91 -58 125 -54 l32 4
-35 2 c-55 2 -112 40 -138 91 -20 39 -23 56 -19 122 7 148 85 247 172 218 19
-6 44 -23 56 -38 19 -24 20 -35 15 -94 -6 -61 -4 -68 14 -78 12 -6 29 -9 38
-7 13 4 13 5 -4 6 -35 2 -43 20 -37 85 4 53 2 65 -18 90 -20 25 -74 57 -96 56
-4 -1 -22 -7 -40 -15z"/>
<path d="M3514 2556 c-47 -21 -74 -62 -73 -110 l2 -41 6 48 c8 55 30 80 86
101 22 8 33 15 25 15 -8 0 -29 -6 -46 -13z"/>
<path d="M3602 2545 c29 -16 61 -63 82 -121 8 -22 15 -32 15 -24 2 48 -78 161
-113 160 -6 -1 1 -7 16 -15z"/>
<path d="M1256 2493 c-17 -114 -102 -242 -218 -323 -55 -39 -80 -50 -112 -51
-36 -1 -38 -2 -12 -8 l28 -6 -62 -50 c-85 -68 -181 -206 -180 -257 1 -7 9 8
19 33 40 103 141 210 285 303 138 90 230 209 257 335 6 28 9 57 6 64 -2 6 -7
-11 -11 -40z"/>
<path d="M3126 2495 c16 -135 108 -262 264 -363 142 -92 241 -198 281 -301 10
-25 18 -39 18 -31 1 55 -90 183 -180 256 -57 46 -60 49 -38 55 20 6 18 7 -11
8 -23 1 -55 14 -90 38 -121 81 -206 198 -235 325 -13 58 -14 59 -9 13z"/>
<path d="M760 2423 c-46 -41 -51 -96 -16 -168 15 -30 41 -64 58 -77 36 -25
116 -35 168 -20 28 8 22 9 -36 5 -53 -4 -78 -2 -101 11 -70 36 -119 144 -93
206 25 61 83 75 96 23 5 -19 -1 -31 -25 -55 -23 -22 -31 -39 -30 -62 l2 -31 4
30 c5 35 29 65 51 65 9 0 24 -8 35 -17 11 -10 17 -12 13 -5 -4 7 -2 12 6 13 7
1 2 4 -12 8 -18 5 -26 16 -31 41 -7 31 -31 60 -51 60 -4 0 -22 -12 -38 -27z"/>
<path d="M3560 2435 c-7 -8 -16 -30 -19 -48 -6 -27 -11 -32 -35 -32 -22 1 -25
-1 -13 -10 11 -8 12 -16 5 -29 -10 -17 -7 -52 7 -88 4 -11 0 -18 -12 -21 -15
-4 -16 -5 -1 -6 25 -2 28 10 15 56 -9 34 -8 45 6 67 31 46 72 29 87 -37 l8
-32 1 33 c1 31 -27 72 -49 72 -16 0 -12 47 6 64 8 9 19 16 22 16 20 0 52 -34
62 -66 22 -66 -24 -165 -93 -200 -23 -13 -48 -15 -101 -11 -43 3 -63 2 -51 -3
34 -14 125 -11 161 6 37 18 89 89 99 136 11 48 -3 94 -36 122 -35 30 -51 32
-69 11z"/>
<path d="M3702 2323 c-2 -78 -25 -136 -66 -169 -18 -15 -22 -21 -9 -15 55 27
87 103 81 191 l-4 55 -2 -62z"/>
<path d="M883 2263 c-12 -53 -10 -64 15 -62 15 1 14 2 -1 6 -13 3 -16 10 -12
21 9 22 19 82 14 82 -3 0 -9 -21 -16 -47z"/>
<path d="M3540 2120 l-45 -7 40 -1 c22 -1 47 3 55 8 8 5 11 9 5 8 -5 0 -30 -4
-55 -8z"/>
<path d="M692 1750 c0 -19 2 -27 5 -17 2 9 2 25 0 35 -3 9 -5 1 -5 -18z"/>
<path d="M3691 1630 c-1 -14 -4 -36 -6 -50 l-6 -25 11 25 c6 13 9 36 7 50 l-4
25 -2 -25z"/>
<path d="M3657 1505 c-25 -61 -50 -90 -110 -130 -29 -19 -48 -35 -44 -35 13 0
60 32 95 64 34 31 86 120 80 137 -2 5 -11 -11 -21 -36z"/>
<path d="M3468 1333 c7 -3 16 -2 19 1 4 3 -2 6 -13 5 -11 0 -14 -3 -6 -6z"/>
<path d="M3356 1275 c-3 -9 -6 -22 -5 -28 0 -7 5 -1 10 12 5 13 8 26 5 28 -2
2 -6 -3 -10 -12z"/>
<path d="M1119 903 c-32 -5 -35 -17 -45 -184 l-7 -117 79 -4 c89 -4 152 -28
263 -102 130 -85 278 -146 441 -182 124 -28 566 -28 690 0 165 36 306 95 450
187 114 73 164 92 254 97 l78 5 -6 121 c-10 172 -10 172 -55 180 -44 7 -133
-14 -186 -44 -20 -11 -85 -54 -144 -94 -267 -183 -429 -236 -731 -236 -313 0
-488 57 -750 243 -147 104 -247 143 -331 130z m329 -239 c12 -8 22 -23 22 -32
0 -14 2 -15 10 -2 5 8 12 11 16 7 11 -10 -24 -79 -36 -72 -7 4 -6 14 1 28 9
18 9 20 -2 10 -17 -17 -41 -16 -63 0 -17 12 -17 14 1 45 21 37 21 37 51 16z
m1456 -36 c-16 -19 -16 -20 -1 -9 9 8 21 11 25 7 4 -4 -1 -13 -11 -20 -23 -18
-22 -29 2 -16 24 12 31 13 31 2 0 -5 -18 -18 -41 -30 -32 -17 -45 -20 -61 -11
-17 9 -19 8 -14 -9 5 -15 1 -21 -16 -27 -13 -4 -29 -6 -37 -5 -7 1 -22 -8 -33
-19 -23 -26 -36 -26 -60 -4 -19 17 -19 16 -13 -10 10 -39 -3 -33 -21 9 -18 42
-12 54 18 35 18 -11 20 -11 15 3 -12 31 14 26 28 -6 l14 -33 1 43 c0 50 12 53
53 15 25 -23 29 -24 22 -8 -14 35 -18 65 -9 65 5 0 19 3 31 6 18 5 25 1 33
-20 5 -14 14 -26 20 -26 6 0 4 13 -6 32 -15 30 -15 32 2 45 10 7 24 13 32 13
12 0 11 -5 -4 -22z m-1349 -24 c9 -10 12 -19 7 -23 -5 -3 -11 -15 -13 -26 -3
-11 -12 -21 -20 -23 -21 -4 -52 26 -43 40 5 7 11 5 19 -5 7 -10 16 -17 20 -17
5 0 0 9 -10 20 -33 37 5 69 40 34z m75 -39 c16 -19 5 -34 -12 -17 -19 19 -38
14 -38 -9 0 -16 5 -20 20 -16 13 3 20 0 20 -9 0 -20 -34 -17 -52 4 -22 24 -7
62 25 62 14 0 30 -7 37 -15z m54 -15 c32 -12 35 -34 4 -25 -23 7 -23 7 -3 -9
19 -15 19 -15 -10 -16 -28 -1 -29 -2 -7 -10 34 -14 27 -31 -8 -19 -33 12 -36
24 -18 64 13 29 10 28 42 15z m82 -34 c16 -12 17 -18 7 -34 -6 -10 -8 -24 -3
-31 5 -8 10 0 14 23 4 20 10 36 14 36 20 -1 52 -13 52 -21 0 -5 -10 -10 -22
-10 -17 -1 -19 -2 -5 -6 9 -2 17 -9 17 -15 0 -6 -9 -8 -20 -5 -11 3 -20 1 -20
-4 0 -5 9 -9 20 -9 11 0 20 -4 20 -10 0 -22 -76 -1 -99 28 -10 12 -15 14 -18
5 -6 -18 -23 -16 -23 1 0 27 19 66 33 66 7 0 22 -6 33 -14z m873 -28 c7 -18 8
-35 2 -41 -7 -7 -31 41 -31 64 0 21 19 6 29 -23z m-30 -9 c14 -41 14 -42 -3
-36 -8 3 -16 1 -18 -5 -2 -6 -14 -13 -26 -15 -18 -2 -24 3 -29 27 -6 32 -8 33
-38 20 -19 -8 -19 -9 3 -9 12 -1 22 -5 22 -10 0 -5 -10 -12 -22 -14 -20 -4
-19 -4 5 -6 32 -1 37 -20 5 -22 -13 -1 -30 -2 -40 -3 -9 -1 -20 -4 -24 -8 -12
-13 -41 -9 -54 7 -10 12 -10 15 0 15 10 0 10 3 0 15 -6 8 -9 19 -5 25 8 14 52
13 61 -2 5 -8 0 -9 -14 -6 -12 4 -20 2 -16 -3 3 -5 11 -9 19 -9 7 0 16 -6 19
-12 3 -7 4 2 3 20 -3 27 0 33 20 37 13 3 34 7 47 10 17 3 28 -1 35 -12 9 -16
10 -16 11 5 0 33 26 27 39 -9z m-659 -14 c9 -11 16 -12 30 -3 23 14 48 4 59
-24 l8 -22 6 23 c4 18 11 22 33 19 15 -2 29 -9 32 -16 3 -9 -3 -11 -22 -6 -22
5 -26 3 -26 -16 0 -19 4 -21 26 -16 19 5 25 3 22 -6 -7 -20 -50 -22 -64 -4
-10 14 -13 15 -24 1 -17 -20 -36 -19 -60 5 -11 11 -22 15 -25 10 -4 -6 -19
-10 -36 -10 -30 0 -35 11 -23 58 7 26 45 30 64 7z m240 -15 c0 -5 -10 -11 -22
-11 l-23 -2 23 -4 c27 -5 29 -23 2 -23 -11 0 -20 -4 -20 -10 0 -5 11 -10 24
-10 21 0 25 6 28 33 3 27 7 32 28 31 41 -2 42 -3 39 -26 -2 -13 0 -29 4 -35 5
-8 3 -13 -7 -13 -8 0 -18 5 -22 11 -4 8 -9 7 -14 -2 -5 -7 -29 -14 -54 -16
l-46 -4 0 40 c0 22 5 42 13 44 21 9 47 7 47 -3z m150 0 c0 -5 -10 -11 -22 -11
l-23 -2 23 -4 c26 -5 29 -20 5 -26 -14 -4 -12 -5 5 -6 12 0 22 -6 22 -12 0 -6
-14 -9 -32 -7 -30 3 -33 6 -36 41 -3 35 -2 37 27 37 17 0 31 -4 31 -10z"/>
<path d="M1416 634 c-8 -22 -8 -24 8 -24 15 0 28 24 19 34 -11 10 -21 7 -27
-10z"/>
<path d="M2815 580 c-3 -5 -2 -10 4 -10 5 0 13 5 16 10 3 6 2 10 -4 10 -5 0
-13 -4 -16 -10z"/>
<path d="M1735 500 c3 -5 11 -10 16 -10 6 0 7 5 4 10 -3 6 -11 10 -16 10 -6 0
-7 -4 -4 -10z"/>
<path d="M1907 440 c-4 -16 -1 -20 11 -18 19 4 23 29 6 35 -6 2 -14 -6 -17
-17z"/>
<path d="M1983 434 c-8 -21 13 -42 28 -27 13 13 5 43 -11 43 -6 0 -13 -7 -17
-16z"/>
<path d="M2230 429 c0 -5 5 -7 10 -4 6 3 10 8 10 11 0 2 -4 4 -10 4 -5 0 -10
-5 -10 -11z"/>
<path d="M778 790 c-112 -20 -226 -78 -292 -148 l-28 -30 43 15 c64 22 167 27
243 13 36 -7 66 -15 66 -19 0 -3 -26 -21 -57 -40 -88 -51 -237 -167 -268 -207
l-27 -35 54 30 c124 70 246 93 364 68 40 -9 130 -42 201 -75 139 -64 219 -92
266 -92 28 0 29 1 15 22 -8 12 -53 43 -99 68 -165 90 -239 156 -224 202 3 13
9 64 13 115 l7 92 -48 11 c-72 15 -176 20 -229 10z"/>
<path d="M3412 785 c-41 -7 -75 -15 -76 -17 -4 -5 12 -169 19 -205 7 -30 3
-37 -47 -85 -33 -32 -92 -73 -149 -102 -51 -28 -105 -61 -119 -75 l-25 -26 28
-3 c41 -5 123 22 269 89 72 33 161 67 197 76 113 26 239 3 366 -66 52 -27 53
-28 39 -5 -30 45 -174 156 -276 214 -32 17 -58 35 -58 40 0 4 30 13 66 20 75
14 178 8 245 -15 l44 -15 -55 52 c-64 60 -149 102 -246 123 -83 18 -125 18
-222 0z"/>
<path d="M1062 567 c-10 -12 -11 -21 -2 -36 17 -32 106 -99 185 -138 38 -19
84 -46 101 -58 l31 -24 19 75 18 76 -24 19 c-14 11 -58 36 -97 56 -58 29 -88
37 -146 41 -58 3 -75 1 -85 -11z"/>
<path d="M3165 566 c-48 -15 -131 -58 -164 -85 l-25 -19 19 -75 19 -75 30 23
c17 12 68 41 112 64 127 65 200 135 173 167 -14 18 -108 18 -164 0z"/>
</g>
</svg>
