<?xml version="1.0" standalone="no"?>
<!DOCTYPE svg PUBLIC "-//W3C//DTD SVG 20010904//EN"
 "http://www.w3.org/TR/2001/REC-SVG-20010904/DTD/svg10.dtd">
<svg version="1.0" xmlns="http://www.w3.org/2000/svg"
 width="1024.000000pt" height="1024.000000pt" viewBox="0 0 1024.000000 1024.000000"
 preserveAspectRatio="xMidYMid meet">

<g transform="translate(0.000000,1024.000000) scale(0.100000,-0.100000)"
fill="#000000" stroke="none">
<path d="M4865 9524 c-750 -55 -1249 -182 -1761 -449 -344 -178 -712 -472
-787 -626 -56 -115 -72 -249 -42 -361 l14 -57 -65 -103 c-86 -136 -201 -370
-264 -541 -221 -596 -261 -1340 -111 -2055 l28 -133 -21 -13 c-11 -7 -66 -39
-120 -71 -151 -88 -328 -227 -466 -365 -611 -611 -845 -1474 -629 -2317 101
-396 328 -790 627 -1091 294 -296 699 -529 1098 -632 314 -81 721 -105 866
-50 107 40 185 143 195 258 3 31 -2 156 -11 277 -9 121 -47 681 -86 1245 -38
564 -97 1419 -130 1900 l-59 874 -31 63 c-75 152 -203 197 -450 158 -52 -8
-116 -18 -141 -21 l-45 -6 -17 88 c-53 277 -72 510 -64 789 14 505 125 913
352 1291 l67 111 66 12 c95 17 195 69 277 143 159 144 280 228 455 318 431
219 927 320 1580 320 680 0 1214 -114 1645 -353 148 -82 234 -143 375 -268
118 -104 201 -147 315 -164 44 -7 47 -9 99 -95 177 -285 284 -590 340 -965 18
-118 36 -405 31 -490 -2 -33 -6 -115 -9 -182 -6 -130 -37 -375 -62 -485 -18
-78 -13 -76 -131 -53 -131 26 -280 31 -341 11 -92 -31 -186 -137 -206 -231 -3
-16 -17 -199 -31 -405 -14 -206 -52 -766 -85 -1245 -182 -2656 -180 -2624
-170 -2671 22 -98 87 -176 183 -220 l62 -29 210 1 c227 0 351 14 550 61 621
146 1168 545 1507 1099 156 253 263 542 318 855 43 244 38 600 -11 856 -130
677 -566 1286 -1164 1628 -55 31 -102 59 -104 60 -1 2 11 75 29 162 112 561
114 1097 5 1613 -72 337 -221 707 -392 970 l-56 85 13 64 c26 131 12 248 -43
361 -38 77 -152 195 -310 318 -530 415 -1164 648 -2002 737 -141 15 -763 28
-890 19z"/>
<path d="M3583 5232 c-99 -35 -171 -111 -200 -211 -15 -53 -14 -78 11 -441 28
-411 168 -2453 211 -3085 15 -216 32 -402 40 -431 28 -97 110 -180 208 -209
171 -51 341 43 391 216 16 53 14 90 -39 865 -30 445 -89 1302 -130 1904 -41
602 -77 1115 -81 1140 -26 189 -233 316 -411 252z"/>
<path d="M6615 5237 c-68 -23 -101 -44 -148 -97 -49 -55 -72 -112 -82 -200 -3
-30 -39 -552 -80 -1160 -42 -608 -98 -1432 -125 -1832 -28 -400 -50 -756 -50
-791 0 -35 7 -84 16 -110 21 -61 93 -141 158 -175 44 -23 63 -27 136 -27 69 0
94 5 132 24 80 39 146 115 169 195 5 17 45 553 89 1191 44 638 102 1487 130
1886 27 400 50 756 50 791 0 35 -7 86 -16 112 -22 65 -100 148 -166 176 -64
27 -158 35 -213 17z"/>
</g>
</svg>
