<?xml version="1.0" standalone="no"?>
<!DOCTYPE svg PUBLIC "-//W3C//DTD SVG 20010904//EN"
 "http://www.w3.org/TR/2001/REC-SVG-20010904/DTD/svg10.dtd">
<svg version="1.0" xmlns="http://www.w3.org/2000/svg"
 width="512.000000pt" height="512.000000pt" viewBox="0 0 512.000000 512.000000"
 preserveAspectRatio="xMidYMid meet">

<g transform="translate(0.000000,512.000000) scale(0.100000,-0.100000)"
fill="#000000" stroke="none">
<path d="M2518 4899 c-10 -5 -22 -26 -28 -47 -6 -24 -10 -277 -10 -709 l0
-673 -47 0 c-156 -1 -223 -68 -223 -222 l0 -78 -315 0 -315 0 0 33 c0 99 -73
212 -168 259 -46 23 -53 23 -347 23 -292 0 -301 -1 -346 -23 -60 -29 -116 -86
-143 -142 -17 -37 -21 -69 -24 -181 l-4 -136 -31 -18 c-52 -31 -169 -154 -221
-233 -104 -158 -147 -302 -152 -517 -2 -94 -30 -391 -75 -800 -51 -473 -69
-670 -65 -721 11 -137 72 -261 177 -359 191 -176 480 -193 696 -39 35 25 80
67 101 93 20 26 188 289 372 584 l335 537 875 0 875 0 345 -552 c378 -607 406
-644 530 -705 228 -112 471 -74 646 101 84 84 127 165 151 283 17 78 16 90 -3
279 -20 191 -22 198 -48 221 -33 28 -56 29 -90 2 -32 -25 -33 -44 -10 -252 19
-179 14 -235 -32 -326 -42 -84 -102 -142 -192 -184 -61 -29 -75 -32 -167 -32
-94 0 -105 2 -168 33 -38 19 -88 54 -113 80 -42 43 -579 891 -570 899 2 2 31
-5 64 -16 142 -46 359 -53 502 -15 218 57 407 190 535 373 l44 63 5 -34 c3
-18 13 -98 21 -177 13 -122 19 -148 37 -168 35 -38 100 -26 118 22 6 15 -3
131 -26 341 -19 176 -36 386 -38 469 -5 215 -48 359 -152 517 -52 79 -169 202
-221 233 l-31 18 -4 136 c-3 117 -6 142 -26 182 -49 101 -136 157 -254 166
-65 5 -76 3 -100 -17 -20 -15 -28 -30 -28 -54 0 -55 19 -69 100 -77 117 -10
160 -59 160 -181 l0 -66 -57 20 c-115 40 -183 49 -432 55 l-243 6 5 40 c11 79
73 127 165 127 64 0 92 23 92 74 0 26 -7 40 -27 56 -25 20 -36 22 -101 17 -92
-7 -148 -34 -207 -99 -46 -52 -75 -122 -75 -185 l0 -33 -315 0 -315 0 0 78 c0
154 -67 221 -222 222 l-48 0 0 673 c0 433 -4 685 -10 709 -15 53 -66 74 -112
47z m-1169 -1577 c45 -23 71 -59 78 -110 l6 -42 -169 0 c-229 0 -366 -14 -475
-49 l-89 -29 0 73 c0 58 4 79 23 106 43 65 62 69 342 69 218 0 254 -2 284 -18z
m1409 -79 l3 -73 -201 0 -200 0 0 68 c0 38 3 72 7 76 4 3 93 5 197 4 l191 -3
3 -72z m-1544 -244 c391 -69 674 -463 617 -859 -57 -389 -379 -670 -766 -670
-203 0 -378 70 -528 210 -428 397 -270 1110 286 1295 124 41 248 49 391 24z
m2286 -16 c-179 -145 -292 -322 -347 -541 -25 -100 -22 -321 5 -425 24 -89 85
-224 131 -291 l32 -46 -761 0 -761 0 31 45 c199 289 208 690 24 996 -49 81
-150 194 -234 262 l-45 36 985 0 985 0 -45 -36z m765 3 c212 -60 392 -211 486
-411 57 -122 73 -192 73 -330 1 -232 -78 -413 -248 -573 -133 -124 -296 -191
-487 -199 -151 -7 -239 11 -376 78 -277 136 -448 427 -430 729 7 115 27 189
76 295 75 159 193 280 346 356 130 64 207 80 365 75 85 -2 157 -10 195 -20z
m-3848 -1399 c161 -163 364 -252 600 -264 123 -6 226 6 325 38 33 11 62 18 64
16 9 -8 -529 -856 -570 -899 -26 -26 -75 -61 -113 -80 -63 -31 -74 -33 -168
-33 -96 0 -104 2 -177 37 -89 45 -148 103 -189 191 -15 34 -31 87 -35 117 -4
37 11 213 45 530 28 261 54 490 57 508 l5 34 44 -63 c24 -34 74 -94 112 -132z"/>
<path d="M1003 2841 c-124 -32 -214 -159 -200 -283 l6 -46 -69 0 c-251 2 -365
-293 -177 -459 54 -47 113 -66 188 -61 l54 3 0 -75 c1 -89 21 -136 85 -194 56
-51 100 -67 175 -67 76 0 127 20 178 69 62 60 82 105 82 192 l0 75 59 -3 c148
-9 277 112 275 258 -2 154 -114 263 -269 262 l-69 0 6 46 c16 139 -95 274
-237 286 -30 3 -69 1 -87 -3z m138 -177 c96 -92 -13 -240 -131 -179 -32 17
-60 61 -60 95 0 38 30 88 63 104 42 22 93 14 128 -20z m-343 -321 c63 -39 62
-145 -1 -183 -51 -32 -103 -26 -143 14 -98 98 26 243 144 169z m636 13 c47
-20 76 -61 76 -108 0 -56 -51 -108 -106 -108 -136 0 -167 181 -38 220 16 4 30
9 32 9 1 1 17 -5 36 -13z m-298 -106 l0 -75 -71 0 -71 0 0 75 0 75 70 0 71 0
1 -75z m-8 -236 c27 -19 52 -65 52 -97 0 -37 -41 -91 -80 -103 -121 -40 -203
117 -102 196 30 24 98 26 130 4z"/>
<path d="M2330 2790 c-30 -30 -27 -83 6 -109 25 -20 40 -21 224 -21 184 0 199
1 224 21 33 26 36 79 6 109 -19 19 -33 20 -230 20 -197 0 -211 -1 -230 -20z"/>
<path d="M2164 2048 c-22 -10 -44 -47 -44 -72 0 -7 9 -25 21 -40 20 -25 24
-26 119 -26 114 0 141 13 142 69 1 26 -6 40 -26 58 -24 20 -37 23 -109 22 -45
0 -92 -5 -103 -11z"/>
<path d="M2744 2037 c-20 -18 -27 -32 -26 -58 1 -56 28 -69 142 -69 95 0 99 1
119 26 24 30 26 43 10 77 -16 36 -50 47 -139 47 -68 0 -83 -3 -106 -23z"/>
<path d="M3879 2827 c-55 -36 -69 -77 -69 -194 0 -56 4 -112 9 -125 l9 -23
-150 0 -150 0 -33 -36 c-40 -44 -50 -101 -43 -249 5 -109 17 -138 71 -170 27
-17 51 -20 150 -20 66 0 127 5 139 11 18 10 19 9 11 -13 -4 -12 -8 -78 -8
-145 0 -107 2 -125 21 -150 38 -52 75 -63 217 -63 146 0 181 10 218 61 22 31
24 44 24 149 0 63 -4 128 -8 143 -7 26 -6 27 12 18 30 -17 235 -14 276 3 64
27 75 60 75 234 l0 152 -34 38 -34 37 -150 0 -149 0 10 40 c14 62 3 229 -17
260 -37 56 -68 65 -222 65 -130 0 -144 -2 -175 -23z m271 -199 l0 -72 -47 -48
-47 -48 -48 47 -48 47 0 73 0 73 95 0 95 0 0 -72z m-350 -333 l44 -45 -44 -45
-44 -45 -78 0 -78 0 0 90 0 90 78 0 78 0 44 -45z m700 -45 l0 -90 -73 0 -73 0
-44 45 -44 45 44 45 44 45 73 0 73 0 0 -90z m-465 56 c11 -3 34 -2 51 3 l31 9
-5 -48 c-2 -26 1 -57 8 -69 11 -21 10 -22 -12 -15 -29 11 -87 11 -112 -1 -16
-7 -17 -6 -7 13 14 26 14 77 0 104 -11 21 -14 21 46 4z m113 -431 l-3 -70 -92
-3 -93 -3 0 73 0 72 47 48 47 48 49 -47 48 -48 -3 -70z"/>
</g>
</svg>
