<?xml version="1.0" standalone="no"?>
<!DOCTYPE svg PUBLIC "-//W3C//DTD SVG 20010904//EN"
 "http://www.w3.org/TR/2001/REC-SVG-20010904/DTD/svg10.dtd">
<svg version="1.0" xmlns="http://www.w3.org/2000/svg"
 width="980.000000pt" height="884.000000pt" viewBox="0 0 980.000000 884.000000"
 preserveAspectRatio="xMidYMid meet">

<g transform="translate(0.000000,884.000000) scale(0.100000,-0.100000)"
fill="#000000" stroke="none">
<path d="M2947 8723 l-107 -108 412 -412 c409 -409 413 -413 390 -429 -103
-72 -226 -206 -319 -346 l-64 -98 -1358 0 c-1503 0 -1405 4 -1551 -67 -58 -28
-94 -55 -160 -122 -97 -98 -138 -170 -170 -295 -20 -78 -20 -111 -20 -2873 0
-2528 2 -2801 16 -2866 42 -187 167 -347 339 -433 130 -64 145 -66 528 -71
l347 -5 0 -299 0 -299 603 2 602 3 3 298 2 297 2455 0 2455 0 2 -297 3 -298
602 -3 603 -2 2 302 3 303 295 36 c162 21 339 42 392 48 226 25 396 130 486
300 66 122 62 -81 62 2987 0 2765 0 2792 -20 2870 -48 188 -165 335 -335 420
-150 74 15 68 -1907 71 l-1727 3 -31 56 c-52 91 -144 207 -226 288 -42 42 -81
76 -85 76 -5 0 -9 5 -9 11 0 6 188 197 418 424 l417 414 -112 113 -113 113
-117 -115 c-65 -63 -269 -264 -453 -447 l-335 -333 -88 36 c-314 124 -660 132
-994 22 l-123 -40 -187 180 c-104 99 -303 296 -443 436 -140 141 -259 256
-265 256 -6 0 -58 -48 -118 -107z m4231 -2037 c65 -36 107 -82 141 -156 l26
-55 6 -965 c3 -531 8 -1516 10 -2190 l4 -1225 -33 -67 c-39 -79 -93 -129 -169
-158 -53 -20 -74 -20 -3173 -20 -3056 0 -3121 0 -3170 19 -98 37 -164 109
-194 211 -14 48 -16 259 -16 2205 0 1946 2 2157 16 2205 30 101 95 173 191
210 47 19 135 19 3178 17 l3130 -2 53 -29z m1531 -591 c170 -40 333 -170 410
-326 69 -139 85 -261 55 -407 -45 -220 -205 -397 -422 -469 -75 -24 -102 -28
-197 -27 -189 1 -328 63 -458 204 -179 193 -215 460 -95 700 77 154 240 284
405 324 77 19 223 19 302 1z m471 -2130 l0 -305 -615 0 -615 0 0 305 0 305
615 0 615 0 0 -305z m0 -1220 l0 -295 -615 0 -615 0 0 295 0 295 615 0 615 0
0 -295z"/>
</g>
</svg>
