<?xml version="1.0" standalone="no"?>
<!DOCTYPE svg PUBLIC "-//W3C//DTD SVG 20010904//EN"
 "http://www.w3.org/TR/2001/REC-SVG-20010904/DTD/svg10.dtd">
<svg version="1.0" xmlns="http://www.w3.org/2000/svg"
 width="251.000000pt" height="201.000000pt" viewBox="0 0 251.000000 201.000000"
 preserveAspectRatio="xMidYMid meet">
<metadata>
Created by potrace 1.16, written by Peter Selinger 2001-2019
</metadata>
<g transform="translate(0.000000,201.000000) scale(0.100000,-0.100000)"
fill="#000000" stroke="none">
<path d="M1063 1949 c-22 -9 -44 -22 -48 -28 -3 -6 -11 -9 -16 -5 -5 3 -9 2
-8 -3 1 -4 -3 -21 -9 -36 -16 -37 -15 -77 1 -82 15 -5 254 -27 319 -29 26 -1
51 -6 55 -10 4 -4 -6 -5 -22 -2 -17 4 -6 -3 24 -14 30 -11 56 -18 59 -16 5 6
24 -9 63 -48 27 -26 29 -33 29 -110 -1 -44 -6 -113 -13 -152 -15 -83 -13 -92
19 -104 13 -5 24 -14 24 -20 0 -8 -6 -7 -20 0 -17 9 -22 7 -28 -11 -8 -20 -9
-21 -16 -4 -6 17 -8 17 -21 -3 -29 -40 -72 -45 -228 -28 -78 9 -169 23 -202
31 -70 17 -121 19 -130 5 -3 -5 -41 -10 -83 -11 -69 -1 -73 -2 -42 -11 19 -5
37 -14 40 -19 4 -5 23 -10 43 -11 l37 -3 0 -49 c0 -47 1 -49 16 -30 8 10 13
14 10 7 -12 -22 -23 -103 -15 -97 5 3 5 -5 0 -18 -5 -13 -5 -33 0 -45 5 -13 4
-25 -1 -28 -6 -4 -10 -18 -9 -33 0 -24 1 -25 9 -7 5 11 11 29 15 40 5 16 8 17
15 5 6 -8 10 -30 10 -49 0 -26 3 -32 15 -27 9 3 18 -1 21 -9 4 -8 12 -15 19
-15 7 0 15 -6 18 -12 6 -17 49 22 72 66 16 30 17 39 5 79 -7 26 -29 65 -49 89
-20 23 -29 39 -20 36 9 -3 22 -2 30 3 10 6 10 9 1 9 -9 0 -10 4 -1 18 8 12 25
19 49 20 21 1 50 6 64 12 15 6 82 8 158 5 119 -5 136 -3 175 16 66 32 126 7
148 -61 4 -12 12 -16 26 -13 20 6 20 6 -1 28 -21 22 -21 23 -4 116 9 52 25
104 34 116 15 19 17 20 28 5 10 -14 12 -12 7 13 -3 17 -1 36 4 44 6 9 6 24 0
38 -6 16 -5 22 1 18 19 -12 10 11 -11 29 -16 13 -18 20 -9 26 9 5 9 9 1 14 -6
4 -11 22 -11 39 -2 89 -110 194 -240 233 -29 8 -67 24 -86 34 -27 16 -42 18
-72 11 -20 -5 -30 -10 -22 -10 13 -1 13 -2 0 -11 -8 -5 -24 -10 -35 -10 -17 0
-17 2 -5 10 12 8 11 11 -10 17 l-25 7 25 7 c22 6 -3 10 -80 11 -3 1 -18 -2
-35 -6 -21 -5 -26 -4 -15 3 8 6 11 14 6 18 -4 4 9 13 31 20 l38 12 -41 -1
c-22 -1 -59 -9 -81 -19z"/>
<path d="M665 1775 c-5 -2 -22 -6 -37 -9 -33 -8 -44 -38 -58 -171 -5 -55 -13
-123 -16 -152 l-7 -52 34 -5 c19 -3 71 -7 117 -9 73 -3 84 -1 93 15 16 30 99
25 129 -7 24 -25 25 -25 168 -23 142 3 145 4 163 28 30 41 62 305 41 336 -15
23 -50 32 -156 43 -98 10 -446 14 -471 6z"/>
<path d="M914 892 c9 -15 17 -94 9 -89 -16 10 -31 -7 -34 -38 -4 -27 -1 -30
26 -31 39 -2 66 -14 59 -26 -3 -5 -12 -1 -18 8 -12 15 -15 14 -30 -16 -12 -26
-13 -35 -4 -41 7 -4 16 -5 20 -3 4 3 8 0 8 -6 0 -6 5 -8 11 -5 6 4 5 -2 -3
-14 -7 -12 -27 -24 -45 -27 -17 -3 -34 -12 -37 -20 -3 -8 -11 -14 -18 -14 -9
0 -8 3 2 10 13 8 12 10 -2 10 -28 0 -58 -37 -58 -70 0 -18 11 -42 30 -63 24
-28 35 -33 60 -29 22 3 39 -3 66 -24 40 -32 97 -68 133 -84 34 -15 171 2 244
30 74 28 168 106 213 176 44 69 55 97 43 115 -7 11 -9 8 -9 -9 0 -47 -74 -156
-138 -202 -79 -58 -154 -90 -239 -100 -99 -13 -126 -4 -192 61 l-44 43 38 16
c25 10 35 19 27 24 -8 5 -6 13 8 28 11 12 20 28 20 35 0 20 57 16 78 -6 34
-38 41 -49 55 -92 25 -74 47 -58 62 44 6 39 4 47 -13 56 -26 14 -45 67 -32 91
6 11 23 27 40 36 16 10 27 21 24 26 -3 4 2 5 10 2 9 -3 16 -2 16 4 0 5 27 37
60 71 34 35 60 71 60 83 0 16 -3 18 -14 9 -10 -8 -16 -9 -21 -1 -10 16 -38 12
-31 -5 4 -10 -1 -15 -16 -15 -17 0 -18 -2 -8 -15 10 -12 10 -15 0 -15 -8 0
-10 -3 -7 -7 4 -3 16 2 27 12 24 21 27 4 4 -20 -9 -8 -24 -13 -34 -10 -23 7
-70 -14 -70 -32 0 -17 -18 -17 -36 2 -17 17 -59 21 -49 5 10 -16 -14 -39 -36
-35 -11 2 -17 0 -14 -5 3 -5 1 -11 -5 -15 -5 -3 -10 0 -10 7 0 9 -3 9 -10 -2
-5 -8 -10 -10 -10 -5 0 6 -7 1 -15 -9 -8 -11 -15 -16 -15 -12 0 5 -7 3 -15 -4
-12 -10 -15 -10 -15 3 0 9 -5 19 -12 23 -7 4 -8 3 -4 -4 4 -7 2 -12 -5 -12 -6
0 -9 8 -6 20 3 11 1 18 -3 15 -5 -3 -11 -1 -14 4 -4 5 2 12 13 16 27 8 44 32
34 47 -4 7 -8 22 -8 33 0 14 -9 21 -32 26 -22 4 -33 3 -34 -5 0 -6 -7 4 -15
22 -8 17 -17 32 -20 32 -3 0 -3 -3 0 -8z"/>
<path d="M785 412 c-3 -4 -97 -7 -208 -7 -147 -1 -209 -5 -227 -14 -38 -20
-100 -83 -100 -101 0 -10 10 -5 29 17 50 54 59 56 315 64 131 5 240 10 241 11
7 7 -43 37 -50 30z"/>
<path d="M1538 363 c-10 -2 -18 -8 -18 -12 0 -9 174 -38 307 -52 161 -16 286
-64 356 -137 29 -30 44 -38 63 -34 13 2 24 9 24 14 0 5 -5 6 -11 3 -5 -4 -34
16 -63 43 -99 94 -215 138 -402 152 -66 5 -135 13 -154 19 -35 11 -71 12 -102
4z"/>
<path d="M480 333 c-97 -8 -182 -27 -187 -42 -4 -9 -13 -24 -21 -33 -8 -9 -12
-23 -9 -30 4 -8 8 -5 13 10 3 12 16 24 28 27 136 27 189 34 296 39 70 2 200
-2 295 -9 94 -8 274 -19 400 -25 262 -11 548 -48 672 -85 56 -17 100 -39 140
-69 43 -33 61 -42 71 -34 19 16 -40 73 -113 108 -73 36 -151 56 -270 70 -49 6
-133 18 -185 27 -61 10 -138 15 -215 13 -305 -6 -338 -5 -405 15 -55 16 -98
19 -270 20 -113 0 -221 0 -240 -2z"/>
<path d="M520 260 c-47 -4 -107 -15 -135 -24 -27 -8 -63 -16 -78 -16 -19 0
-30 -7 -36 -22 -9 -22 -10 -22 -23 10 -8 18 -17 29 -21 25 -11 -11 -8 -33 10
-70 15 -32 17 -33 24 -16 5 15 23 23 71 32 34 7 76 20 91 28 46 23 249 28 402
9 72 -8 247 -20 390 -26 143 -6 303 -15 355 -21 186 -21 392 -69 445 -105 11
-8 35 -14 55 -14 l35 1 -25 20 c-109 91 -364 137 -870 159 -135 6 -305 17
-378 25 -141 16 -174 16 -312 5z"/>
<path d="M480 181 c-25 -4 -63 -17 -85 -28 -22 -12 -62 -24 -88 -28 -26 -4
-51 -14 -56 -22 -7 -13 -12 -10 -27 15 -21 37 -37 24 -22 -19 12 -35 39 -60
45 -41 3 6 12 12 21 12 10 0 34 9 54 19 19 11 38 18 41 15 2 -3 20 5 40 16 50
30 197 37 352 17 161 -21 218 -25 510 -38 138 -5 295 -17 350 -26 55 -8 141
-17 190 -19 l90 -3 -60 20 c-127 42 -261 57 -720 79 -121 6 -269 17 -330 25
-115 15 -228 17 -305 6z"/>
<path d="M465 99 c-33 -4 -70 -13 -83 -19 -13 -6 -27 -8 -32 -5 -4 3 -10 -1
-13 -8 -3 -9 87 -12 427 -13 331 -1 396 0 283 7 -82 4 -199 15 -260 23 -160
21 -253 26 -322 15z"/>
</g>
</svg>
