<?xml version="1.0" encoding="UTF-8"?>
<!DOCTYPE svg PUBLIC "-//W3C//DTD SVG 1.1//EN" "http://www.w3.org/Graphics/SVG/1.1/DTD/svg11.dtd">
<!-- Creator: CorelDRAW 2021 (64 Bit) -->
<svg xmlns="http://www.w3.org/2000/svg" xml:space="preserve" width="230mm" height="297mm" version="1.1" style="shape-rendering:geometricPrecision; text-rendering:geometricPrecision; image-rendering:optimizeQuality; fill-rule:evenodd; clip-rule:evenodd"
viewBox="0 0 23000 29700"
 xmlns:xlink="http://www.w3.org/1999/xlink"
 xmlns:xodm="http://www.corel.com/coreldraw/odm/2003">
 <defs>
  <style type="text/css">
   <![CDATA[
    .str0 {stroke:#373435;stroke-width:20;stroke-miterlimit:22.9256}
    .fil2 {fill:none}
    .fil1 {fill:#00AFEF}
    .fil0 {fill:#007ACC}
    .fil3 {fill:#FEFEFE;fill-rule:nonzero}
   ]]>
  </style>
 </defs>
 <g id="Camada_x0020_1">
  <metadata id="CorelCorpID_0Corel-Layer"/>
  <path class="fil0" d="M11365.38 27420.62l384.68 0 2246.84 -688.43c765.57,-207.39 1512.39,-419.52 2268.33,-631.83l3339.26 -944.04c507.87,-142.39 822.9,-163.7 1151.39,-384.5l2095.18 -22568.98 0 -260.21 -22579.6 0 2089.71 22934.02 9004.21 2543.97z"/>
  <path class="fil1" d="M12195.72 25604.54c1006.8,-103.29 2719.24,-706.98 3756.68,-979.19 1065.22,-279.48 2875.01,-708.37 3751.67,-1073.07l1760.43 -19588.72 -9268.9 3.08 0.12 21637.9z"/>
  <path class="fil2 str0" d="M22324.63 9651.26c0,0 0,0 0,0"/>
  <path class="fil3" d="M2820.27 5481.86c0,466.93 0,929.8 0,1392.67 549.07,8.12 1099.9,17.26 1649.83,24.36 549.95,7.1 1100.76,14.21 1651.58,22.33 0.87,2935.58 0.87,5873.18 0.87,8806.72 0,2933.55 0,5867.09 0,8802.66 703.34,148.2 1406.67,296.4 2110.01,440.54 0,-3000.53 0,-6003.1 0,-9005.67 0,-3002.57 0,-6005.14 -0.87,-9011.77 549.94,10.15 1100.76,20.32 1650.7,28.43 549.94,8.12 1101.64,18.27 1652.45,26.39 0,-509.57 0,-1019.13 0,-1528.69 -1452.86,0 -2906.6,-2.02 -4358.59,0 -1451.99,2.03 -2904.86,2.03 -4355.98,2.03z"/>
  <path class="fil3" d="M15893.41 24433.36c853.99,-346.41 1637.26,-967.76 2224.21,-1669.41 583.81,-697.9 970.32,-1485.33 1001.11,-2202.87 47.39,-1104.58 95,-2209.15 142.41,-3317.91 48.22,-1127.57 -271.58,-1867.53 -756.06,-2414.16 -490.78,-553.75 -1145.89,-917.93 -1765.55,-1271.93 -574.11,-327.98 -1108.85,-644.15 -1497.47,-1098.3 -391.87,-457.95 -637.43,-1058.56 -628.31,-1943.46 9.02,-874.46 17.68,-1746.82 26.53,-2621.27 7.19,-711.27 742.56,-1399.57 1611.96,-1499.96 905.91,-104.61 1621.03,387.02 1600.1,1071.1 -23.04,753.11 -46.08,1506.23 -68.42,2261.44 301.59,-46.02 603.02,-97.3 904.77,-144.34 302.11,-47.09 604.57,-96.23 907.55,-144.35 31.42,-734.29 62.83,-1468.59 94.25,-2202.87 30.71,-717.56 -336.6,-1333.53 -952.24,-1753.09 -621.42,-423.51 -1489.97,-656.69 -2455.99,-564.84 -948.23,90.15 -1822.18,496.14 -2449.7,1083.65 -630.51,590.31 -1015.72,1363.98 -1015.07,2152.66 0.74,895.37 1.51,1790.75 2.09,2686.13 0.81,1240.54 358.18,2087.43 874.05,2707.04 508.27,610.48 1174.79,1003.9 1797.66,1357.7 566.75,321.92 1094.57,609.48 1472.34,1029.26 373.4,414.92 601.22,962.33 575.95,1805.4 -34.06,1135.95 -68.85,2274 -103.32,3407.86 -20.67,679.89 -697.8,1499 -1513.53,1807.48 -782.95,296.09 -1433.33,-43.94 -1426.26,-757.3 8.28,-834.71 16.75,-1669.42 25.13,-2506.21 -282.74,89.95 -565.88,185.04 -848.22,276.14 -281.73,90.9 -565.47,184.1 -846.82,271.96 0.7,857.72 1.38,1713.35 2.1,2568.97 0.67,788.68 350.32,1376.03 909.65,1671.5 553.47,292.37 1317.56,293.73 2155.1,-46.02z"/>
 </g>
</svg>
